<svg xmlns="http://www.w3.org/2000/svg" xmlns:xlink="http://www.w3.org/1999/xlink" width="401" zoomAndPan="magnify" viewBox="0 0 300.75 151.500001" height="202" preserveAspectRatio="xMidYMid meet" version="1.2"><defs/><g id="3891541aaa"><g style="fill:#e9684d;fill-opacity:1;"><g transform="translate(24.727487, 106.14494)"><path style="stroke:none" d="M 29.3125 -45.71875 C 29.3125 -44.726562 29.207031 -43.84375 29 -43.0625 C 28.789062 -42.289062 27.9375 -41.90625 26.4375 -41.90625 C 26.070312 -41.90625 25.71875 -41.914062 25.375 -41.9375 C 25.039062 -41.96875 24.691406 -41.984375 24.328125 -41.984375 L 22.15625 -41.984375 C 21.632812 -41.984375 21.15625 -41.992188 20.71875 -42.015625 C 20.28125 -42.046875 19.773438 -42.0625 19.203125 -42.0625 L 19.046875 -42.0625 C 18.117188 -42.0625 17.5 -41.851562 17.1875 -41.4375 C 16.875 -41.019531 16.71875 -40.554688 16.71875 -40.046875 L 16.71875 -38.40625 C 16.71875 -37.988281 16.703125 -37.613281 16.671875 -37.28125 C 16.648438 -36.945312 16.640625 -36.570312 16.640625 -36.15625 C 16.640625 -35.320312 16.859375 -34.738281 17.296875 -34.40625 C 17.734375 -34.070312 18.195312 -33.878906 18.6875 -33.828125 C 19.1875 -33.773438 19.488281 -33.75 19.59375 -33.75 C 20.007812 -33.75 20.410156 -33.757812 20.796875 -33.78125 C 21.179688 -33.8125 21.582031 -33.800781 22 -33.75 C 22.3125 -33.75 22.582031 -33.734375 22.8125 -33.703125 C 23.050781 -33.679688 23.328125 -33.671875 23.640625 -33.671875 C 23.953125 -33.722656 24.257812 -33.757812 24.5625 -33.78125 C 24.875 -33.8125 25.1875 -33.828125 25.5 -33.828125 C 26.539062 -33.773438 27.210938 -33.460938 27.515625 -32.890625 C 27.828125 -32.316406 27.984375 -31.820312 27.984375 -31.40625 C 27.984375 -30.988281 27.957031 -30.613281 27.90625 -30.28125 C 27.851562 -29.945312 27.828125 -29.570312 27.828125 -29.15625 L 27.828125 -27.671875 C 27.828125 -26.222656 27.8125 -24.992188 27.78125 -23.984375 C 27.757812 -22.972656 27.53125 -22.195312 27.09375 -21.65625 C 26.65625 -21.113281 25.785156 -20.84375 24.484375 -20.84375 C 23.660156 -20.84375 22.921875 -20.890625 22.265625 -20.984375 C 21.617188 -21.085938 20.882812 -21.140625 20.0625 -21.140625 C 19.070312 -21.140625 18.34375 -20.929688 17.875 -20.515625 C 17.414062 -20.109375 17.132812 -19.628906 17.03125 -19.078125 C 16.925781 -18.535156 16.875 -18.113281 16.875 -17.8125 L 16.875 -14 C 16.875 -13.0625 16.882812 -12.226562 16.90625 -11.5 C 16.9375 -10.78125 16.953125 -9.953125 16.953125 -9.015625 C 16.898438 -8.597656 16.859375 -8.222656 16.828125 -7.890625 C 16.804688 -7.554688 16.796875 -7.179688 16.796875 -6.765625 C 16.796875 -6.085938 16.847656 -5.503906 16.953125 -5.015625 C 17.054688 -4.523438 17.109375 -3.96875 17.109375 -3.34375 L 17.109375 -3.109375 C 17.109375 -2.847656 17.054688 -2.472656 16.953125 -1.984375 C 16.847656 -1.492188 16.597656 -1.050781 16.203125 -0.65625 C 15.816406 -0.269531 15.160156 -0.078125 14.234375 -0.078125 C 13.398438 -0.078125 12.632812 -0.101562 11.9375 -0.15625 C 11.238281 -0.207031 10.445312 -0.234375 9.5625 -0.234375 C 8.832031 -0.234375 8.171875 -0.207031 7.578125 -0.15625 C 6.984375 -0.101562 6.320312 -0.078125 5.59375 -0.078125 C 4.351562 -0.078125 3.578125 -0.410156 3.265625 -1.078125 C 2.953125 -1.753906 2.796875 -2.328125 2.796875 -2.796875 C 2.796875 -3.992188 2.832031 -5.082031 2.90625 -6.0625 C 2.988281 -7.050781 3.03125 -8.164062 3.03125 -9.40625 C 3.082031 -11.6875 3.054688 -13.71875 2.953125 -15.5 C 2.847656 -17.289062 2.820312 -19.300781 2.875 -21.53125 C 2.875 -23.195312 2.925781 -24.703125 3.03125 -26.046875 C 3.132812 -27.390625 3.1875 -28.867188 3.1875 -30.484375 C 3.1875 -32.085938 3.144531 -33.507812 3.0625 -34.75 C 2.988281 -36 2.953125 -37.425781 2.953125 -39.03125 C 2.953125 -40.375 2.976562 -41.601562 3.03125 -42.71875 C 3.082031 -43.832031 3.109375 -45.09375 3.109375 -46.5 C 3.109375 -47.269531 3.082031 -47.976562 3.03125 -48.625 C 2.976562 -49.28125 2.953125 -49.992188 2.953125 -50.765625 C 2.953125 -52.535156 3.300781 -53.664062 4 -54.15625 C 4.695312 -54.644531 5.539062 -54.890625 6.53125 -54.890625 L 9.09375 -54.890625 C 10.5 -54.890625 11.769531 -54.914062 12.90625 -54.96875 C 14.039062 -55.019531 15.3125 -55.046875 16.71875 -55.046875 C 17.445312 -55.046875 18.117188 -55.019531 18.734375 -54.96875 C 19.359375 -54.914062 20.0625 -54.890625 20.84375 -54.890625 C 21.976562 -54.890625 23.007812 -54.898438 23.9375 -54.921875 C 24.875 -54.953125 25.914062 -54.96875 27.0625 -54.96875 C 27.375 -54.96875 27.828125 -54.890625 28.421875 -54.734375 C 29.015625 -54.578125 29.3125 -53.984375 29.3125 -52.953125 C 29.3125 -52.640625 29.296875 -52.363281 29.265625 -52.125 C 29.242188 -51.894531 29.234375 -51.625 29.234375 -51.3125 L 29.234375 -49.921875 C 29.234375 -49.140625 29.242188 -48.4375 29.265625 -47.8125 C 29.296875 -47.195312 29.3125 -46.5 29.3125 -45.71875 Z M 29.3125 -45.71875 "/></g></g><g style="fill:#e9684d;fill-opacity:1;"><g transform="translate(50.616071, 106.14494)"><path style="stroke:none" d="M 38.015625 -32.03125 C 38.015625 -28.457031 38.023438 -25.53125 38.046875 -23.25 C 38.078125 -20.96875 38 -18.984375 37.8125 -17.296875 C 37.632812 -15.609375 37.265625 -13.804688 36.703125 -11.890625 C 36.703125 -11.734375 36.570312 -11.109375 36.3125 -10.015625 C 36.050781 -8.929688 35.6875 -7.925781 35.21875 -7 C 34.695312 -5.90625 33.96875 -4.835938 33.03125 -3.796875 C 32.101562 -2.765625 31.097656 -1.914062 30.015625 -1.25 C 29.753906 -1.144531 29.414062 -1.015625 29 -0.859375 C 28.582031 -0.703125 28.09375 -0.492188 27.53125 -0.234375 C 26.226562 0.234375 25.097656 0.53125 24.140625 0.65625 C 23.179688 0.789062 22.054688 0.859375 20.765625 0.859375 C 19.253906 0.859375 17.539062 0.703125 15.625 0.390625 C 13.707031 0.078125 11.851562 -0.53125 10.0625 -1.4375 C 8.28125 -2.34375 6.765625 -3.675781 5.515625 -5.4375 C 5.097656 -6.007812 4.695312 -6.785156 4.3125 -7.765625 C 3.925781 -8.753906 3.578125 -9.753906 3.265625 -10.765625 C 2.953125 -11.773438 2.742188 -12.539062 2.640625 -13.0625 C 2.535156 -13.582031 2.429688 -14.375 2.328125 -15.4375 C 2.222656 -16.5 2.144531 -17.570312 2.09375 -18.65625 C 2.039062 -19.75 2.015625 -20.53125 2.015625 -21 C 2.015625 -22.03125 2.039062 -22.972656 2.09375 -23.828125 C 2.144531 -24.679688 2.144531 -25.628906 2.09375 -26.671875 C 2.09375 -27.492188 2.078125 -28.226562 2.046875 -28.875 C 2.023438 -29.53125 2.015625 -30.242188 2.015625 -31.015625 C 2.015625 -34.703125 2.144531 -37.863281 2.40625 -40.5 C 2.664062 -43.144531 3.257812 -45.425781 4.1875 -47.34375 C 5.125 -49.257812 6.550781 -50.972656 8.46875 -52.484375 C 9.507812 -53.253906 10.507812 -53.875 11.46875 -54.34375 C 12.425781 -54.8125 13.523438 -55.132812 14.765625 -55.3125 C 16.015625 -55.5 17.597656 -55.59375 19.515625 -55.59375 L 19.984375 -55.59375 C 21.328125 -55.59375 22.6875 -55.488281 24.0625 -55.28125 C 25.4375 -55.070312 26.71875 -54.679688 27.90625 -54.109375 C 28.375 -53.898438 29.019531 -53.523438 29.84375 -52.984375 C 30.675781 -52.441406 31.484375 -51.859375 32.265625 -51.234375 C 33.046875 -50.609375 33.59375 -50.117188 33.90625 -49.765625 C 35.351562 -48.148438 36.398438 -45.828125 37.046875 -42.796875 C 37.691406 -39.765625 38.015625 -36.175781 38.015625 -32.03125 Z M 23.796875 -26.4375 C 23.796875 -27.113281 23.78125 -27.707031 23.75 -28.21875 C 23.726562 -28.738281 23.71875 -29.335938 23.71875 -30.015625 C 23.664062 -30.679688 23.664062 -31.300781 23.71875 -31.875 C 23.769531 -32.445312 23.796875 -33.070312 23.796875 -33.75 C 23.796875 -34.15625 23.769531 -34.8125 23.71875 -35.71875 C 23.664062 -36.632812 23.570312 -37.570312 23.4375 -38.53125 C 23.3125 -39.488281 23.144531 -40.144531 22.9375 -40.5 C 22.675781 -40.96875 22.335938 -41.410156 21.921875 -41.828125 C 21.503906 -42.242188 20.859375 -42.453125 19.984375 -42.453125 C 19.773438 -42.453125 19.617188 -42.425781 19.515625 -42.375 C 19.253906 -42.375 19.003906 -42.320312 18.765625 -42.21875 C 18.535156 -42.113281 18.289062 -42.007812 18.03125 -41.90625 C 17.3125 -41.382812 16.820312 -40.671875 16.5625 -39.765625 C 16.300781 -38.859375 16.171875 -37.734375 16.171875 -36.390625 C 16.171875 -35.347656 16.195312 -34.382812 16.25 -33.5 C 16.300781 -32.625 16.328125 -31.671875 16.328125 -30.640625 C 16.328125 -28.566406 16.285156 -26.695312 16.203125 -25.03125 C 16.128906 -23.375 16.09375 -21.507812 16.09375 -19.4375 C 16.09375 -18.8125 16.117188 -17.914062 16.171875 -16.75 C 16.222656 -15.582031 16.507812 -14.53125 17.03125 -13.59375 C 17.550781 -12.664062 18.457031 -12.203125 19.75 -12.203125 C 20.9375 -12.203125 21.789062 -12.515625 22.3125 -13.140625 C 22.832031 -13.765625 23.15625 -14.503906 23.28125 -15.359375 C 23.414062 -16.210938 23.484375 -16.976562 23.484375 -17.65625 C 23.484375 -18.320312 23.46875 -18.925781 23.4375 -19.46875 C 23.414062 -20.019531 23.429688 -20.628906 23.484375 -21.296875 C 23.535156 -22.234375 23.597656 -23.078125 23.671875 -23.828125 C 23.753906 -24.578125 23.796875 -25.445312 23.796875 -26.4375 Z M 23.796875 -26.4375 "/></g></g><g style="fill:#e9684d;fill-opacity:1;"><g transform="translate(87.855209, 106.14494)"><path style="stroke:none" d="M 39.421875 -1.859375 C 39.421875 -1.035156 39.09375 -0.554688 38.4375 -0.421875 C 37.789062 -0.296875 37.414062 -0.234375 37.3125 -0.234375 L 37.015625 -0.234375 C 36.335938 -0.234375 35.75 -0.257812 35.25 -0.3125 C 34.757812 -0.363281 34.179688 -0.390625 33.515625 -0.390625 C 32.734375 -0.390625 32.046875 -0.390625 31.453125 -0.390625 C 30.859375 -0.390625 30.195312 -0.363281 29.46875 -0.3125 C 29.050781 -0.3125 28.660156 -0.285156 28.296875 -0.234375 C 27.929688 -0.179688 27.546875 -0.15625 27.140625 -0.15625 C 25.890625 -0.15625 25.097656 -0.554688 24.765625 -1.359375 C 24.429688 -2.160156 24.054688 -3.003906 23.640625 -3.890625 C 23.273438 -4.816406 22.882812 -5.628906 22.46875 -6.328125 C 22.050781 -7.035156 21.632812 -7.828125 21.21875 -8.703125 C 20.96875 -9.328125 20.75 -9.882812 20.5625 -10.375 C 20.382812 -10.875 20.140625 -11.429688 19.828125 -12.046875 C 19.515625 -12.671875 19.226562 -13.21875 18.96875 -13.6875 C 18.707031 -14.15625 18.367188 -14.390625 17.953125 -14.390625 C 17.390625 -14.390625 17.082031 -14.113281 17.03125 -13.5625 C 16.976562 -13.019531 16.953125 -12.644531 16.953125 -12.4375 C 16.953125 -11.664062 16.960938 -10.96875 16.984375 -10.34375 C 17.015625 -9.71875 17.03125 -9.039062 17.03125 -8.3125 C 17.03125 -7.75 17.015625 -7.234375 16.984375 -6.765625 C 16.960938 -6.296875 16.953125 -5.773438 16.953125 -5.203125 C 16.953125 -4.691406 16.976562 -4.203125 17.03125 -3.734375 C 17.082031 -3.265625 17.109375 -2.742188 17.109375 -2.171875 C 17.109375 -1.347656 16.898438 -0.789062 16.484375 -0.5 C 16.066406 -0.21875 15.648438 -0.078125 15.234375 -0.078125 C 14.410156 -0.078125 13.671875 -0.113281 13.015625 -0.1875 C 12.367188 -0.269531 11.609375 -0.3125 10.734375 -0.3125 C 9.742188 -0.3125 8.847656 -0.257812 8.046875 -0.15625 C 7.242188 -0.0507812 6.347656 0 5.359375 0 C 4.535156 0 3.898438 -0.257812 3.453125 -0.78125 C 3.015625 -1.300781 2.796875 -1.945312 2.796875 -2.71875 C 2.796875 -3.289062 2.820312 -3.804688 2.875 -4.265625 C 2.925781 -4.734375 2.976562 -5.226562 3.03125 -5.75 C 3.082031 -6.738281 3.117188 -7.632812 3.140625 -8.4375 C 3.171875 -9.238281 3.1875 -10.132812 3.1875 -11.125 C 3.132812 -13.09375 3.066406 -14.851562 2.984375 -16.40625 C 2.910156 -17.957031 2.875 -19.71875 2.875 -21.6875 C 2.875 -23.65625 2.910156 -25.457031 2.984375 -27.09375 C 3.066406 -28.726562 3.109375 -30.53125 3.109375 -32.5 C 3.109375 -33.789062 3.082031 -34.941406 3.03125 -35.953125 C 2.976562 -36.960938 2.953125 -38.117188 2.953125 -39.421875 C 2.953125 -40.765625 2.976562 -41.992188 3.03125 -43.109375 C 3.082031 -44.222656 3.109375 -45.457031 3.109375 -46.8125 C 3.109375 -47.632812 3.066406 -48.367188 2.984375 -49.015625 C 2.910156 -49.671875 2.898438 -50.410156 2.953125 -51.234375 C 2.953125 -52.015625 3.195312 -52.867188 3.6875 -53.796875 C 4.1875 -54.734375 5.316406 -55.203125 7.078125 -55.203125 C 7.898438 -55.203125 8.625 -55.175781 9.25 -55.125 C 9.875 -55.070312 10.597656 -55.046875 11.421875 -55.046875 C 13.398438 -54.992188 15.175781 -55.019531 16.75 -55.125 C 18.332031 -55.226562 20.109375 -55.28125 22.078125 -55.28125 C 23.578125 -55.28125 25.207031 -55.132812 26.96875 -54.84375 C 28.738281 -54.5625 30.4375 -53.925781 32.0625 -52.9375 C 33.695312 -51.957031 35.113281 -50.457031 36.3125 -48.4375 C 36.625 -47.8125 36.859375 -47.269531 37.015625 -46.8125 C 37.117188 -46.5 37.269531 -46.132812 37.46875 -45.71875 C 37.675781 -45.300781 37.882812 -44.753906 38.09375 -44.078125 C 38.300781 -43.460938 38.457031 -42.570312 38.5625 -41.40625 C 38.664062 -40.238281 38.742188 -39.070312 38.796875 -37.90625 C 38.847656 -36.738281 38.875 -35.84375 38.875 -35.21875 C 38.875 -34.851562 38.832031 -33.929688 38.75 -32.453125 C 38.675781 -30.984375 38.351562 -29.285156 37.78125 -27.359375 C 37.21875 -25.441406 36.207031 -23.601562 34.75 -21.84375 C 34.539062 -21.53125 34.320312 -21.257812 34.09375 -21.03125 C 33.863281 -20.800781 33.617188 -20.554688 33.359375 -20.296875 C 33.148438 -20.085938 32.953125 -19.929688 32.765625 -19.828125 C 32.585938 -19.722656 32.394531 -19.539062 32.1875 -19.28125 C 32.132812 -19.226562 32.066406 -19.125 31.984375 -18.96875 C 31.910156 -18.8125 31.875 -18.628906 31.875 -18.421875 C 31.875 -18.054688 32.132812 -17.351562 32.65625 -16.3125 C 33.175781 -15.28125 33.71875 -14.242188 34.28125 -13.203125 C 34.851562 -12.171875 35.21875 -11.453125 35.375 -11.046875 C 35.632812 -10.523438 35.851562 -10.039062 36.03125 -9.59375 C 36.21875 -9.15625 36.441406 -8.65625 36.703125 -8.09375 C 37.109375 -7.207031 37.519531 -6.414062 37.9375 -5.71875 C 38.351562 -5.019531 38.742188 -4.226562 39.109375 -3.34375 C 39.160156 -3.1875 39.222656 -2.988281 39.296875 -2.75 C 39.378906 -2.519531 39.421875 -2.222656 39.421875 -1.859375 Z M 24.03125 -36.703125 C 24.03125 -37.367188 23.910156 -38.144531 23.671875 -39.03125 C 23.441406 -39.914062 23.023438 -40.679688 22.421875 -41.328125 C 21.828125 -41.972656 20.988281 -42.296875 19.90625 -42.296875 L 19.59375 -42.296875 C 18.96875 -42.191406 18.472656 -42.007812 18.109375 -41.75 C 17.703125 -41.382812 17.421875 -41.007812 17.265625 -40.625 C 17.109375 -40.238281 17.03125 -39.992188 17.03125 -39.890625 C 17.03125 -39.835938 17.003906 -39.472656 16.953125 -38.796875 C 16.898438 -38.117188 16.859375 -37.351562 16.828125 -36.5 C 16.804688 -35.644531 16.78125 -34.878906 16.75 -34.203125 C 16.726562 -33.535156 16.71875 -33.175781 16.71875 -33.125 C 16.71875 -32.132812 17 -31.25 17.5625 -30.46875 C 18.132812 -29.695312 18.992188 -29.3125 20.140625 -29.3125 C 20.710938 -29.3125 21.191406 -29.390625 21.578125 -29.546875 C 21.960938 -29.703125 22.257812 -29.882812 22.46875 -30.09375 C 23.144531 -30.65625 23.570312 -31.519531 23.75 -32.6875 C 23.9375 -33.851562 24.03125 -35.191406 24.03125 -36.703125 Z M 24.03125 -36.703125 "/></g></g><g style="fill:#e9684d;fill-opacity:1;"><g transform="translate(125.094348, 106.14494)"><path style="stroke:none" d="M 38.640625 -31.09375 C 38.640625 -30.375 38.625 -29.710938 38.59375 -29.109375 C 38.570312 -28.515625 38.5625 -27.832031 38.5625 -27.0625 C 38.5625 -26.226562 38.570312 -25.488281 38.59375 -24.84375 C 38.625 -24.195312 38.613281 -23.429688 38.5625 -22.546875 C 38.5625 -21.765625 38.535156 -21.0625 38.484375 -20.4375 C 38.429688 -19.820312 38.40625 -19.125 38.40625 -18.34375 C 38.40625 -17.3125 38.429688 -16.367188 38.484375 -15.515625 C 38.535156 -14.660156 38.5625 -13.6875 38.5625 -12.59375 C 38.5625 -11.507812 38.546875 -10.523438 38.515625 -9.640625 C 38.492188 -8.753906 38.484375 -7.742188 38.484375 -6.609375 L 38.484375 -4.359375 C 38.484375 -4.304688 38.457031 -4.003906 38.40625 -3.453125 C 38.351562 -2.910156 38.195312 -2.429688 37.9375 -2.015625 C 37.113281 -0.878906 35.597656 -0.144531 33.390625 0.1875 C 31.191406 0.53125 28.769531 0.703125 26.125 0.703125 C 24.46875 0.703125 23.066406 0.6875 21.921875 0.65625 C 20.785156 0.632812 19.644531 0.492188 18.5 0.234375 C 17.363281 -0.0234375 15.941406 -0.46875 14.234375 -1.09375 C 13.609375 -1.351562 12.894531 -1.660156 12.09375 -2.015625 C 11.289062 -2.378906 10.578125 -2.820312 9.953125 -3.34375 C 9.117188 -4.070312 8.441406 -4.757812 7.921875 -5.40625 C 7.410156 -6.050781 6.867188 -6.789062 6.296875 -7.625 C 5.359375 -8.96875 4.578125 -10.179688 3.953125 -11.265625 C 3.335938 -12.359375 2.832031 -13.628906 2.4375 -15.078125 C 2.050781 -16.535156 1.734375 -18.484375 1.484375 -20.921875 C 1.429688 -21.484375 1.335938 -22.320312 1.203125 -23.4375 C 1.078125 -24.550781 1.015625 -25.863281 1.015625 -27.375 C 1.015625 -28.351562 1.078125 -29.488281 1.203125 -30.78125 C 1.335938 -32.082031 1.503906 -33.34375 1.703125 -34.5625 C 1.910156 -35.78125 2.078125 -36.789062 2.203125 -37.59375 C 2.335938 -38.394531 2.40625 -38.796875 2.40625 -38.796875 C 2.664062 -39.734375 2.953125 -40.578125 3.265625 -41.328125 C 3.578125 -42.078125 3.941406 -42.890625 4.359375 -43.765625 C 5.179688 -45.429688 5.828125 -46.570312 6.296875 -47.1875 C 6.765625 -47.8125 7.710938 -48.785156 9.140625 -50.109375 C 10.566406 -51.429688 12.160156 -52.507812 13.921875 -53.34375 C 15.003906 -53.90625 16.128906 -54.316406 17.296875 -54.578125 C 18.460938 -54.835938 19.59375 -55.070312 20.6875 -55.28125 C 22.238281 -55.539062 23.632812 -55.695312 24.875 -55.75 C 26.125 -55.800781 27.007812 -55.828125 27.53125 -55.828125 L 28.296875 -55.828125 C 28.398438 -55.828125 28.789062 -55.8125 29.46875 -55.78125 C 30.144531 -55.757812 30.910156 -55.734375 31.765625 -55.703125 C 32.617188 -55.679688 33.394531 -55.65625 34.09375 -55.625 C 34.789062 -55.601562 35.191406 -55.566406 35.296875 -55.515625 C 35.660156 -55.304688 36 -55.03125 36.3125 -54.6875 C 36.625 -54.351562 36.78125 -53.828125 36.78125 -53.109375 C 36.78125 -52.742188 36.765625 -52.40625 36.734375 -52.09375 C 36.710938 -51.78125 36.703125 -51.414062 36.703125 -51 L 36.703125 -48.28125 C 36.703125 -47.039062 36.703125 -45.863281 36.703125 -44.75 C 36.703125 -43.632812 36.597656 -42.894531 36.390625 -42.53125 C 36.179688 -42.21875 35.945312 -41.96875 35.6875 -41.78125 C 35.425781 -41.601562 35.242188 -41.460938 35.140625 -41.359375 C 35.085938 -41.304688 34.90625 -41.210938 34.59375 -41.078125 C 34.28125 -40.953125 33.972656 -40.890625 33.671875 -40.890625 C 33.148438 -40.890625 32.679688 -41.019531 32.265625 -41.28125 C 31.847656 -41.539062 31.351562 -41.75 30.78125 -41.90625 C 30.582031 -41.957031 30.144531 -42.007812 29.46875 -42.0625 C 28.789062 -42.113281 28.128906 -42.148438 27.484375 -42.171875 C 26.835938 -42.203125 26.382812 -42.21875 26.125 -42.21875 C 23.945312 -42.21875 22.257812 -41.894531 21.0625 -41.25 C 19.875 -40.601562 18.890625 -39.65625 18.109375 -38.40625 C 17.910156 -38.144531 17.71875 -37.78125 17.53125 -37.3125 C 17.351562 -36.851562 17.210938 -36.492188 17.109375 -36.234375 C 17.054688 -36.023438 17.015625 -35.695312 16.984375 -35.25 C 16.960938 -34.8125 16.898438 -34.3125 16.796875 -33.75 C 16.691406 -33.019531 16.5625 -32.394531 16.40625 -31.875 C 16.25 -31.351562 16.128906 -30.753906 16.046875 -30.078125 C 15.972656 -29.410156 15.9375 -28.457031 15.9375 -27.21875 C 15.9375 -26.695312 15.945312 -26.1875 15.96875 -25.6875 C 16 -25.195312 16.015625 -24.671875 16.015625 -24.109375 L 16.015625 -23.328125 C 16.015625 -22.804688 16.039062 -22.414062 16.09375 -22.15625 C 16.144531 -21.894531 16.195312 -21.609375 16.25 -21.296875 C 16.25 -21.242188 16.363281 -20.921875 16.59375 -20.328125 C 16.832031 -19.734375 17.09375 -19.085938 17.375 -18.390625 C 17.664062 -17.691406 17.9375 -17.054688 18.1875 -16.484375 C 18.445312 -15.910156 18.601562 -15.570312 18.65625 -15.46875 C 18.757812 -15.3125 18.898438 -15.09375 19.078125 -14.8125 C 19.265625 -14.53125 19.539062 -14.234375 19.90625 -13.921875 C 20.269531 -13.660156 20.75 -13.398438 21.34375 -13.140625 C 21.9375 -12.878906 22.625 -12.75 23.40625 -12.75 C 25.320312 -12.75 26.28125 -13.367188 26.28125 -14.609375 C 26.28125 -15.023438 26.253906 -15.398438 26.203125 -15.734375 C 26.148438 -16.078125 26.125 -16.429688 26.125 -16.796875 C 26.125 -17.367188 26.148438 -17.875 26.203125 -18.3125 C 26.253906 -18.75 26.28125 -19.226562 26.28125 -19.75 C 26.28125 -20.78125 25.929688 -21.476562 25.234375 -21.84375 C 24.535156 -22.207031 24.03125 -22.390625 23.71875 -22.390625 C 23.457031 -22.390625 23.222656 -22.347656 23.015625 -22.265625 C 22.804688 -22.191406 22.570312 -22.15625 22.3125 -22.15625 C 21.945312 -22.15625 21.546875 -22.347656 21.109375 -22.734375 C 20.671875 -23.128906 20.453125 -23.6875 20.453125 -24.40625 C 20.453125 -25.394531 20.460938 -26.273438 20.484375 -27.046875 C 20.515625 -27.828125 20.554688 -28.710938 20.609375 -29.703125 C 20.609375 -30.222656 20.609375 -30.78125 20.609375 -31.375 C 20.609375 -31.96875 20.632812 -32.289062 20.6875 -32.34375 C 20.6875 -32.394531 20.695312 -32.5625 20.71875 -32.84375 C 20.75 -33.132812 20.84375 -33.382812 21 -33.59375 C 21.25 -34.050781 21.617188 -34.421875 22.109375 -34.703125 C 22.609375 -34.992188 23.273438 -35.140625 24.109375 -35.140625 C 24.878906 -35.140625 25.5625 -35.113281 26.15625 -35.0625 C 26.757812 -35.007812 27.421875 -34.984375 28.140625 -34.984375 C 29.078125 -34.984375 29.90625 -34.984375 30.625 -34.984375 C 31.351562 -34.984375 32.1875 -35.007812 33.125 -35.0625 C 33.488281 -35.113281 33.796875 -35.148438 34.046875 -35.171875 C 34.304688 -35.203125 34.617188 -35.21875 34.984375 -35.21875 C 36.285156 -35.21875 37.179688 -34.945312 37.671875 -34.40625 C 38.160156 -33.863281 38.441406 -33.265625 38.515625 -32.609375 C 38.597656 -31.960938 38.640625 -31.457031 38.640625 -31.09375 Z M 38.640625 -31.09375 "/></g></g><g style="fill:#e9684d;fill-opacity:1;"><g transform="translate(162.333486, 106.14494)"><path style="stroke:none" d="M 32.1875 -9.953125 C 32.1875 -9.328125 32.160156 -8.769531 32.109375 -8.28125 C 32.054688 -7.789062 32.03125 -7.207031 32.03125 -6.53125 C 32.03125 -5.851562 32.039062 -5.253906 32.0625 -4.734375 C 32.09375 -4.222656 32.109375 -3.628906 32.109375 -2.953125 C 32.109375 -2.484375 31.9375 -1.859375 31.59375 -1.078125 C 31.257812 -0.304688 30.421875 0.078125 29.078125 0.078125 C 28.554688 0.078125 28.078125 0.0625 27.640625 0.03125 C 27.203125 0.0078125 26.695312 0 26.125 0 L 24.265625 0 C 23.328125 0 22.484375 -0.0234375 21.734375 -0.078125 C 20.984375 -0.128906 20.140625 -0.15625 19.203125 -0.15625 C 18.679688 -0.15625 18.203125 -0.140625 17.765625 -0.109375 C 17.328125 -0.0859375 16.820312 -0.078125 16.25 -0.078125 L 7.9375 -0.078125 C 7.570312 -0.0234375 7.234375 0.0078125 6.921875 0.03125 C 6.609375 0.0625 6.242188 0.078125 5.828125 0.078125 C 5.359375 0.078125 4.707031 -0.128906 3.875 -0.546875 C 3.050781 -0.960938 2.640625 -1.84375 2.640625 -3.1875 C 2.640625 -4.226562 2.675781 -5.160156 2.75 -5.984375 C 2.832031 -6.816406 2.875 -7.722656 2.875 -8.703125 C 2.875 -9.640625 2.859375 -10.46875 2.828125 -11.1875 C 2.804688 -11.914062 2.796875 -12.75 2.796875 -13.6875 C 2.796875 -14.351562 2.832031 -14.957031 2.90625 -15.5 C 2.988281 -16.050781 3.03125 -16.664062 3.03125 -17.34375 C 3.03125 -18.007812 3.003906 -18.601562 2.953125 -19.125 C 2.898438 -19.644531 2.875 -20.242188 2.875 -20.921875 C 2.875 -22.210938 2.898438 -23.363281 2.953125 -24.375 C 3.003906 -25.382812 3.03125 -26.535156 3.03125 -27.828125 C 3.03125 -29.023438 3.003906 -30.191406 2.953125 -31.328125 C 2.898438 -32.472656 2.875 -33.613281 2.875 -34.75 C 2.820312 -36.363281 2.832031 -37.800781 2.90625 -39.0625 C 2.988281 -40.332031 3.03125 -41.773438 3.03125 -43.390625 C 3.03125 -44.523438 3.003906 -45.53125 2.953125 -46.40625 C 2.898438 -47.289062 2.875 -48.28125 2.875 -49.375 C 2.875 -51.65625 3.109375 -53.195312 3.578125 -54 C 4.046875 -54.800781 5.160156 -55.203125 6.921875 -55.203125 C 7.953125 -55.203125 8.882812 -55.148438 9.71875 -55.046875 C 10.550781 -54.941406 11.457031 -54.890625 12.4375 -54.890625 C 12.90625 -54.890625 13.382812 -54.898438 13.875 -54.921875 C 14.363281 -54.953125 14.84375 -54.96875 15.3125 -54.96875 C 16.5625 -54.96875 17.691406 -54.925781 18.703125 -54.84375 C 19.710938 -54.769531 20.835938 -54.734375 22.078125 -54.734375 C 22.648438 -54.734375 23.15625 -54.757812 23.59375 -54.8125 C 24.039062 -54.863281 24.519531 -54.890625 25.03125 -54.890625 L 26.59375 -54.890625 C 27.007812 -54.890625 27.394531 -54.898438 27.75 -54.921875 C 28.113281 -54.953125 28.53125 -54.96875 29 -54.96875 C 30.1875 -54.96875 30.894531 -54.628906 31.125 -53.953125 C 31.363281 -53.285156 31.484375 -52.742188 31.484375 -52.328125 C 31.484375 -51.648438 31.441406 -50.988281 31.359375 -50.34375 C 31.285156 -49.695312 31.25 -49.035156 31.25 -48.359375 C 31.25 -47.679688 31.257812 -46.875 31.28125 -45.9375 C 31.3125 -45.007812 31.132812 -44.207031 30.75 -43.53125 C 30.363281 -42.863281 29.519531 -42.53125 28.21875 -42.53125 L 27.375 -42.53125 C 26.90625 -42.53125 26.472656 -42.515625 26.078125 -42.484375 C 25.691406 -42.460938 25.265625 -42.453125 24.796875 -42.453125 C 24.179688 -42.453125 23.625 -42.488281 23.125 -42.5625 C 22.632812 -42.644531 22.050781 -42.6875 21.375 -42.6875 C 19.25 -42.6875 17.976562 -42.359375 17.5625 -41.703125 C 17.15625 -41.054688 16.953125 -40.0625 16.953125 -38.71875 C 16.953125 -36.019531 17.859375 -34.671875 19.671875 -34.671875 C 20.085938 -34.671875 20.472656 -34.695312 20.828125 -34.75 C 21.191406 -34.800781 21.582031 -34.828125 22 -34.828125 L 22.15625 -34.828125 C 22.726562 -34.828125 23.242188 -34.800781 23.703125 -34.75 C 24.171875 -34.695312 24.664062 -34.671875 25.1875 -34.671875 C 25.65625 -34.671875 26.082031 -34.679688 26.46875 -34.703125 C 26.863281 -34.734375 27.265625 -34.75 27.671875 -34.75 C 28.765625 -34.75 29.519531 -34.554688 29.9375 -34.171875 C 30.351562 -33.785156 30.585938 -33.332031 30.640625 -32.8125 C 30.691406 -32.289062 30.71875 -31.847656 30.71875 -31.484375 C 30.71875 -30.867188 30.703125 -30.328125 30.671875 -29.859375 C 30.648438 -29.390625 30.640625 -28.84375 30.640625 -28.21875 C 30.640625 -27.65625 30.648438 -27.140625 30.671875 -26.671875 C 30.703125 -26.203125 30.71875 -25.679688 30.71875 -25.109375 C 30.71875 -24.128906 30.507812 -23.40625 30.09375 -22.9375 C 29.675781 -22.46875 29.21875 -22.179688 28.71875 -22.078125 C 28.226562 -21.972656 27.804688 -21.921875 27.453125 -21.921875 C 26.253906 -21.921875 25.175781 -21.972656 24.21875 -22.078125 C 23.257812 -22.179688 22.1875 -22.234375 21 -22.234375 C 19.59375 -22.234375 18.617188 -22 18.078125 -21.53125 C 17.535156 -21.070312 17.222656 -20.515625 17.140625 -19.859375 C 17.066406 -19.210938 17.03125 -18.601562 17.03125 -18.03125 L 17.03125 -17.109375 C 17.03125 -16.898438 17.039062 -16.519531 17.0625 -15.96875 C 17.09375 -15.425781 17.132812 -15.023438 17.1875 -14.765625 C 17.75 -13.679688 18.367188 -13.125 19.046875 -13.09375 C 19.722656 -13.070312 20.785156 -13.007812 22.234375 -12.90625 C 22.960938 -12.851562 23.597656 -12.785156 24.140625 -12.703125 C 24.679688 -12.628906 25.289062 -12.59375 25.96875 -12.59375 C 26.59375 -12.59375 27.148438 -12.628906 27.640625 -12.703125 C 28.128906 -12.785156 28.660156 -12.828125 29.234375 -12.828125 C 29.648438 -12.828125 30.234375 -12.65625 30.984375 -12.3125 C 31.734375 -11.976562 32.132812 -11.191406 32.1875 -9.953125 Z M 32.1875 -9.953125 "/></g></g><g style="fill:#e9684d;fill-opacity:1;"><g transform="translate(193.042172, 106.14494)"><path style="stroke:none" d="M 29.9375 -43.921875 C 29.9375 -43.617188 29.832031 -43.085938 29.625 -42.328125 C 29.414062 -41.578125 28.71875 -41.203125 27.53125 -41.203125 C 27.164062 -41.203125 26.828125 -41.210938 26.515625 -41.234375 C 26.203125 -41.265625 25.835938 -41.28125 25.421875 -41.28125 C 24.285156 -41.28125 23.507812 -40.984375 23.09375 -40.390625 C 22.675781 -39.796875 22.46875 -38.722656 22.46875 -37.171875 C 22.46875 -35.867188 22.503906 -34.695312 22.578125 -33.65625 C 22.660156 -32.625 22.703125 -31.4375 22.703125 -30.09375 C 22.703125 -28.476562 22.675781 -27.050781 22.625 -25.8125 C 22.570312 -24.570312 22.546875 -23.144531 22.546875 -21.53125 C 22.546875 -20.082031 22.570312 -18.785156 22.625 -17.640625 C 22.675781 -16.503906 22.703125 -15.210938 22.703125 -13.765625 C 22.703125 -12.929688 22.6875 -12.113281 22.65625 -11.3125 C 22.632812 -10.507812 22.625 -9.691406 22.625 -8.859375 C 22.625 -8.191406 22.632812 -7.570312 22.65625 -7 C 22.6875 -6.425781 22.726562 -5.773438 22.78125 -5.046875 C 22.832031 -4.640625 22.882812 -4.265625 22.9375 -3.921875 C 22.988281 -3.585938 23.015625 -3.210938 23.015625 -2.796875 C 23.015625 -1.972656 22.816406 -1.378906 22.421875 -1.015625 C 22.035156 -0.648438 21.609375 -0.414062 21.140625 -0.3125 C 20.679688 -0.207031 20.320312 -0.15625 20.0625 -0.15625 C 19.59375 -0.15625 19.175781 -0.164062 18.8125 -0.1875 C 18.445312 -0.21875 18.035156 -0.257812 17.578125 -0.3125 C 16.898438 -0.363281 16.3125 -0.390625 15.8125 -0.390625 C 15.320312 -0.390625 14.742188 -0.390625 14.078125 -0.390625 C 13.554688 -0.390625 13.0625 -0.363281 12.59375 -0.3125 C 12.125 -0.257812 11.609375 -0.234375 11.046875 -0.234375 C 10.210938 -0.234375 9.546875 -0.441406 9.046875 -0.859375 C 8.554688 -1.273438 8.3125 -2.128906 8.3125 -3.421875 C 8.3125 -4.710938 8.375 -5.847656 8.5 -6.828125 C 8.632812 -7.816406 8.703125 -8.960938 8.703125 -10.265625 C 8.703125 -11.453125 8.660156 -12.535156 8.578125 -13.515625 C 8.503906 -14.503906 8.46875 -15.597656 8.46875 -16.796875 C 8.46875 -18.191406 8.53125 -19.457031 8.65625 -20.59375 C 8.789062 -21.738281 8.859375 -23.007812 8.859375 -24.40625 C 8.859375 -25.445312 8.816406 -26.367188 8.734375 -27.171875 C 8.660156 -27.972656 8.597656 -28.867188 8.546875 -29.859375 C 8.492188 -31.460938 8.546875 -32.953125 8.703125 -34.328125 C 8.859375 -35.703125 8.910156 -36.921875 8.859375 -37.984375 C 8.804688 -39.046875 8.445312 -39.863281 7.78125 -40.4375 C 7.625 -40.632812 7.476562 -40.742188 7.34375 -40.765625 C 7.21875 -40.796875 7.128906 -40.835938 7.078125 -40.890625 C 6.816406 -41.046875 6.488281 -41.132812 6.09375 -41.15625 C 5.707031 -41.1875 5.382812 -41.203125 5.125 -41.203125 C 4.820312 -41.203125 4.539062 -41.1875 4.28125 -41.15625 C 4.019531 -41.132812 3.757812 -41.125 3.5 -41.125 C 2.457031 -41.125 1.753906 -41.394531 1.390625 -41.9375 C 1.035156 -42.488281 0.859375 -43 0.859375 -43.46875 C 0.859375 -44.445312 0.882812 -45.320312 0.9375 -46.09375 C 0.988281 -46.875 1.015625 -47.757812 1.015625 -48.75 C 1.015625 -49.425781 0.988281 -50.019531 0.9375 -50.53125 C 0.882812 -51.050781 0.859375 -51.648438 0.859375 -52.328125 C 0.859375 -53.304688 1.0625 -53.988281 1.46875 -54.375 C 1.882812 -54.769531 2.585938 -54.96875 3.578125 -54.96875 C 4.453125 -54.96875 5.253906 -54.941406 5.984375 -54.890625 C 6.710938 -54.835938 7.515625 -54.8125 8.390625 -54.8125 C 9.742188 -54.8125 11.082031 -54.847656 12.40625 -54.921875 C 13.726562 -55.003906 15.035156 -55.046875 16.328125 -55.046875 L 17.1875 -55.046875 C 18.269531 -55.046875 19.25 -55.019531 20.125 -54.96875 C 21.007812 -54.914062 22.023438 -54.890625 23.171875 -54.890625 C 23.898438 -54.890625 24.535156 -54.914062 25.078125 -54.96875 C 25.617188 -55.019531 26.226562 -55.046875 26.90625 -55.046875 C 28.40625 -55.046875 29.285156 -54.59375 29.546875 -53.6875 C 29.804688 -52.78125 29.9375 -51.804688 29.9375 -50.765625 C 29.9375 -49.992188 29.921875 -49.304688 29.890625 -48.703125 C 29.867188 -48.109375 29.859375 -47.453125 29.859375 -46.734375 C 29.859375 -46.210938 29.867188 -45.742188 29.890625 -45.328125 C 29.921875 -44.910156 29.9375 -44.441406 29.9375 -43.921875 Z M 29.9375 -43.921875 "/></g></g><g style="fill:#e9684d;fill-opacity:1;"><g transform="translate(220.563372, 106.14494)"><path style="stroke:none" d=""/></g></g><g style="fill:#e9684d;fill-opacity:1;"><g transform="translate(235.101413, 106.14494)"><path style="stroke:none" d="M 38.015625 -51.859375 C 38.015625 -51.285156 37.988281 -50.753906 37.9375 -50.265625 C 37.882812 -49.773438 37.832031 -49.21875 37.78125 -48.59375 C 37.726562 -47.507812 37.6875 -46.523438 37.65625 -45.640625 C 37.632812 -44.753906 37.625 -43.769531 37.625 -42.6875 C 37.625 -41.59375 37.660156 -40.601562 37.734375 -39.71875 C 37.816406 -38.84375 37.859375 -37.835938 37.859375 -36.703125 C 37.910156 -35.242188 37.882812 -33.957031 37.78125 -32.84375 C 37.675781 -31.726562 37.625 -30.445312 37.625 -29 C 37.625 -27.1875 37.648438 -25.550781 37.703125 -24.09375 C 37.753906 -22.644531 37.78125 -21.015625 37.78125 -19.203125 C 37.78125 -18.367188 37.753906 -17.585938 37.703125 -16.859375 C 37.648438 -16.140625 37.597656 -15.34375 37.546875 -14.46875 C 37.546875 -14.15625 37.53125 -13.53125 37.5 -12.59375 C 37.476562 -11.664062 37.300781 -10.550781 36.96875 -9.25 C 36.632812 -7.957031 36.015625 -6.648438 35.109375 -5.328125 C 34.203125 -4.003906 32.835938 -2.796875 31.015625 -1.703125 C 30.554688 -1.453125 29.882812 -1.117188 29 -0.703125 C 28.113281 -0.285156 27.078125 0.0507812 25.890625 0.3125 C 25.054688 0.46875 24.09375 0.582031 23 0.65625 C 21.914062 0.738281 20.972656 0.78125 20.171875 0.78125 C 19.367188 0.78125 18.941406 0.78125 18.890625 0.78125 C 16.347656 0.78125 14.335938 0.492188 12.859375 -0.078125 C 11.390625 -0.648438 10.054688 -1.269531 8.859375 -1.9375 C 8.085938 -2.40625 7.503906 -2.796875 7.109375 -3.109375 C 6.722656 -3.421875 6.320312 -3.785156 5.90625 -4.203125 C 5.539062 -4.617188 5.191406 -5.097656 4.859375 -5.640625 C 4.523438 -6.179688 4.28125 -6.632812 4.125 -7 C 3.707031 -7.976562 3.40625 -9.234375 3.21875 -10.765625 C 3.039062 -12.296875 2.953125 -13.554688 2.953125 -14.546875 C 2.898438 -16.203125 2.925781 -17.675781 3.03125 -18.96875 C 3.132812 -20.269531 3.1875 -21.722656 3.1875 -23.328125 C 3.1875 -25.554688 3.132812 -27.5625 3.03125 -29.34375 C 2.925781 -31.132812 2.875 -33.144531 2.875 -35.375 C 2.875 -36.664062 2.898438 -37.832031 2.953125 -38.875 C 3.003906 -39.914062 3.03125 -41.082031 3.03125 -42.375 C 3.03125 -43.769531 3.015625 -45.035156 2.984375 -46.171875 C 2.960938 -47.316406 2.953125 -48.59375 2.953125 -50 C 2.953125 -51.601562 3.082031 -52.832031 3.34375 -53.6875 C 3.601562 -54.539062 4.378906 -54.96875 5.671875 -54.96875 C 6.609375 -54.96875 7.4375 -54.914062 8.15625 -54.8125 C 8.882812 -54.707031 9.71875 -54.65625 10.65625 -54.65625 C 11.164062 -54.65625 11.613281 -54.679688 12 -54.734375 C 12.394531 -54.785156 12.828125 -54.8125 13.296875 -54.8125 C 14.171875 -54.8125 15.035156 -54.707031 15.890625 -54.5 C 16.753906 -54.289062 17.1875 -53.515625 17.1875 -52.171875 C 17.1875 -50.972656 17.144531 -49.867188 17.0625 -48.859375 C 16.988281 -47.847656 16.953125 -46.75 16.953125 -45.5625 C 16.953125 -44.832031 16.960938 -44.179688 16.984375 -43.609375 C 17.015625 -43.046875 17.03125 -42.398438 17.03125 -41.671875 C 17.03125 -40.992188 17.015625 -40.394531 16.984375 -39.875 C 16.960938 -39.363281 16.953125 -38.769531 16.953125 -38.09375 L 16.953125 -35.609375 C 16.953125 -34.421875 16.910156 -33.226562 16.828125 -32.03125 C 16.753906 -30.84375 16.71875 -29.648438 16.71875 -28.453125 C 16.71875 -27.523438 16.726562 -26.695312 16.75 -25.96875 C 16.78125 -25.238281 16.796875 -24.410156 16.796875 -23.484375 C 16.796875 -22.546875 16.78125 -21.609375 16.75 -20.671875 C 16.726562 -19.742188 16.71875 -18.8125 16.71875 -17.875 L 16.71875 -17.578125 C 16.71875 -17.003906 16.753906 -16.300781 16.828125 -15.46875 C 16.910156 -14.644531 17.179688 -13.929688 17.640625 -13.328125 C 18.109375 -12.734375 18.863281 -12.4375 19.90625 -12.4375 C 20.320312 -12.4375 20.707031 -12.5 21.0625 -12.625 C 21.425781 -12.757812 21.660156 -12.851562 21.765625 -12.90625 C 22.753906 -13.53125 23.335938 -14.320312 23.515625 -15.28125 C 23.703125 -16.238281 23.796875 -17.546875 23.796875 -19.203125 C 23.796875 -21.171875 23.820312 -22.929688 23.875 -24.484375 C 23.925781 -26.046875 23.925781 -27.785156 23.875 -29.703125 C 23.820312 -31.359375 23.753906 -32.847656 23.671875 -34.171875 C 23.597656 -35.492188 23.5625 -36.984375 23.5625 -38.640625 C 23.5625 -40.140625 23.597656 -41.457031 23.671875 -42.59375 C 23.753906 -43.738281 23.796875 -45.039062 23.796875 -46.5 C 23.796875 -47.007812 23.78125 -47.507812 23.75 -48 C 23.726562 -48.5 23.71875 -49.007812 23.71875 -49.53125 C 23.71875 -50.144531 23.71875 -50.867188 23.71875 -51.703125 C 23.71875 -52.535156 23.910156 -53.273438 24.296875 -53.921875 C 24.679688 -54.566406 25.445312 -54.890625 26.59375 -54.890625 C 27.46875 -54.890625 28.269531 -54.847656 29 -54.765625 C 29.726562 -54.691406 30.53125 -54.65625 31.40625 -54.65625 C 32.132812 -54.65625 32.804688 -54.679688 33.421875 -54.734375 C 34.046875 -54.785156 34.75 -54.8125 35.53125 -54.8125 C 36.363281 -54.8125 36.945312 -54.601562 37.28125 -54.1875 C 37.613281 -53.769531 37.816406 -53.328125 37.890625 -52.859375 C 37.972656 -52.398438 38.015625 -52.066406 38.015625 -51.859375 Z M 38.015625 -51.859375 "/></g></g><g style="fill:#f5ece8;fill-opacity:1;"><g transform="translate(80.95115, 54.721038)"><path style="stroke:none" d="M 11.175781 -5.070312 L 17.851562 -4.03125 L 16.652344 2.785156 L -3.78125 2.785156 L -2.558594 -4.175781 L 3.507812 -5.074219 L 3.914062 -2.316406 L 1.167969 -2.800781 L 5.824219 -29.226562 L 8.570312 -28.742188 L 8.125 -25.992188 L 1.460938 -27.066406 L 2.667969 -33.84375 L 23.128906 -33.84375 L 21.894531 -26.914062 L 15.820312 -25.988281 L 15.402344 -28.742188 L 18.144531 -28.257812 L 13.492188 -1.832031 L 10.746094 -2.316406 Z M 7.507812 0 L 13.003906 -31.195312 L 19.082031 -32.121094 L 19.5 -29.367188 L 16.757812 -29.855469 L 17.058594 -31.546875 L 19.800781 -31.058594 L 19.800781 -28.269531 L 5.003906 -28.269531 L 5.003906 -31.058594 L 7.746094 -30.570312 L 7.445312 -28.878906 L 4.703125 -29.367188 L 5.144531 -32.117188 L 11.804688 -31.042969 L 6.308594 0.148438 L 0.246094 1.042969 L -0.164062 -1.714844 L 2.582031 -1.230469 L 2.28125 0.480469 L -0.464844 0 L -0.464844 -2.785156 L 14.3125 -2.785156 L 14.3125 0 L 11.566406 -0.480469 L 11.871094 -2.195312 L 14.613281 -1.714844 L 14.183594 1.039062 L 10.316406 0.4375 Z M 7.507812 0 "/></g></g><g style="fill:#f5ece8;fill-opacity:1;"><g transform="translate(97.318849, 54.721038)"><path style="stroke:none" d=""/></g></g><g style="fill:#f5ece8;fill-opacity:1;"><g transform="translate(107.087244, 54.721038)"><path style="stroke:none" d="M 44.355469 -27.589844 L 29.894531 3.503906 L 23.625 3.503906 L 19.539062 -18.410156 L 22.28125 -18.921875 L 24.796875 -17.726562 L 14.734375 3.503906 L 8.226562 3.503906 L 3.519531 -28.359375 L 6.277344 -28.765625 L 5.730469 -26.03125 L 0.0429688 -27.167969 L 1.230469 -33.84375 L 19.957031 -33.84375 L 18.722656 -26.929688 L 13.019531 -26.011719 L 12.574219 -28.765625 L 15.339844 -29.125 L 17.792969 -10.273438 L 15.03125 -9.914062 L 12.515625 -11.117188 L 22.46875 -31.898438 L 28.867188 -31.898438 L 32.804688 -10.296875 L 30.0625 -9.796875 L 27.511719 -10.921875 L 35.898438 -29.890625 L 38.445312 -28.765625 L 38.007812 -26.011719 L 31.40625 -27.058594 L 32.613281 -33.84375 L 48.28125 -33.84375 L 47.066406 -27.03125 L 42.40625 -26.039062 L 41.828125 -28.765625 Z M 39.886719 -31.199219 L 44.070312 -32.09375 L 44.652344 -29.367188 L 41.910156 -29.855469 L 42.210938 -31.546875 L 44.953125 -31.058594 L 44.953125 -28.269531 L 34.949219 -28.269531 L 34.949219 -31.058594 L 37.691406 -30.570312 L 37.390625 -28.878906 L 34.648438 -29.367188 L 35.082031 -32.121094 L 42.457031 -30.949219 L 28.945312 -0.378906 L 23.800781 -28.613281 L 26.542969 -29.113281 L 26.542969 -26.324219 L 24.226562 -26.324219 L 24.226562 -29.113281 L 26.738281 -27.910156 L 13.480469 -0.226562 L 9.464844 -31.085938 L 15.886719 -32.117188 L 16.328125 -29.367188 L 13.585938 -29.855469 L 13.886719 -31.546875 L 16.628906 -31.058594 L 16.628906 -28.269531 L 3.566406 -28.269531 L 3.566406 -31.058594 L 6.308594 -30.570312 L 6.007812 -28.878906 L 3.265625 -29.367188 L 3.8125 -32.101562 L 8.746094 -31.113281 L 13.386719 0.3125 L 10.628906 0.71875 L 10.628906 -2.070312 L 12.96875 -2.070312 L 12.96875 0.71875 L 10.453125 -0.476562 L 23.445312 -27.886719 L 28.679688 0.207031 L 25.9375 0.71875 L 25.9375 -2.070312 L 28.117188 -2.070312 L 28.117188 0.71875 L 25.589844 -0.457031 L 39.300781 -29.941406 Z M 39.886719 -31.199219 "/></g></g><g style="fill:#f5ece8;fill-opacity:1;"><g transform="translate(147.166132, 54.721038)"><path style="stroke:none" d="M 11.175781 -5.070312 L 17.851562 -4.03125 L 16.652344 2.785156 L -3.78125 2.785156 L -2.558594 -4.175781 L 3.507812 -5.074219 L 3.914062 -2.316406 L 1.167969 -2.800781 L 5.824219 -29.226562 L 8.570312 -28.742188 L 8.125 -25.992188 L 1.460938 -27.066406 L 2.667969 -33.84375 L 23.128906 -33.84375 L 21.894531 -26.914062 L 15.820312 -25.988281 L 15.402344 -28.742188 L 18.144531 -28.257812 L 13.492188 -1.832031 L 10.746094 -2.316406 Z M 7.507812 0 L 13.003906 -31.195312 L 19.082031 -32.121094 L 19.5 -29.367188 L 16.757812 -29.855469 L 17.058594 -31.546875 L 19.800781 -31.058594 L 19.800781 -28.269531 L 5.003906 -28.269531 L 5.003906 -31.058594 L 7.746094 -30.570312 L 7.445312 -28.878906 L 4.703125 -29.367188 L 5.144531 -32.117188 L 11.804688 -31.042969 L 6.308594 0.148438 L 0.246094 1.042969 L -0.164062 -1.714844 L 2.582031 -1.230469 L 2.28125 0.480469 L -0.464844 0 L -0.464844 -2.785156 L 14.3125 -2.785156 L 14.3125 0 L 11.566406 -0.480469 L 11.871094 -2.195312 L 14.613281 -1.714844 L 14.183594 1.039062 L 10.316406 0.4375 Z M 7.507812 0 "/></g></g><g style="fill:#f5ece8;fill-opacity:1;"><g transform="translate(163.533832, 54.721038)"><path style="stroke:none" d="M 20.550781 -26.601562 L 15.875 -26 L 15.515625 -28.765625 L 18.261719 -28.28125 L 13.628906 -1.972656 L 10.886719 -2.453125 L 10.886719 -5.242188 L 13.503906 -5.242188 C 14.273438 -5.242188 15.105469 -5.257812 15.992188 -5.285156 C 16.886719 -5.316406 17.734375 -5.355469 18.53125 -5.398438 C 19.324219 -5.445312 20.023438 -5.492188 20.628906 -5.542969 C 21.171875 -5.589844 21.519531 -5.628906 21.675781 -5.65625 L 22.1875 -2.917969 L 19.617188 -3.996094 L 23.042969 -12.167969 L 30.308594 -12.167969 L 27.023438 2.785156 L -3.628906 2.785156 L -2.492188 -4.140625 L 3.609375 -5.070312 L 4.03125 -2.316406 L 1.285156 -2.800781 L 5.941406 -29.246094 L 8.683594 -28.765625 L 8.253906 -26.011719 L 1.597656 -27.054688 L 2.808594 -33.84375 L 23.824219 -33.84375 L 22.582031 -26.863281 Z M 19.839844 -32.132812 L 20.195312 -29.367188 L 17.453125 -29.855469 L 17.753906 -31.546875 L 20.496094 -31.058594 L 20.496094 -28.269531 L 5.140625 -28.269531 L 5.140625 -31.058594 L 7.886719 -30.570312 L 7.585938 -28.878906 L 4.839844 -29.367188 L 5.273438 -32.121094 L 11.921875 -31.078125 L 6.429688 0.136719 L 0.351562 1.0625 L -0.0703125 -1.691406 L 2.679688 -1.238281 L 2.402344 0.453125 L -0.347656 0 L -0.347656 -2.785156 L 24.78125 -2.785156 L 24.78125 0 L 22.058594 -0.597656 L 24.121094 -9.976562 L 26.84375 -9.378906 L 26.84375 -6.59375 L 24.898438 -6.59375 L 24.898438 -9.378906 L 27.46875 -8.300781 L 24.175781 -0.457031 L 22.699219 -0.179688 C 22.363281 -0.117188 21.832031 -0.0546875 21.105469 0.0078125 C 20.445312 0.0664062 19.691406 0.117188 18.847656 0.164062 C 18.007812 0.210938 17.117188 0.253906 16.179688 0.285156 C 15.226562 0.316406 14.335938 0.332031 13.503906 0.332031 L 7.566406 0.332031 L 13.128906 -31.265625 Z M 19.839844 -32.132812 "/></g></g><g style="fill:#f5ece8;fill-opacity:1;"><g transform="translate(190.41411, 54.721038)"><path style="stroke:none" d="M 20.550781 -26.601562 L 15.875 -26 L 15.515625 -28.765625 L 18.261719 -28.28125 L 13.628906 -1.972656 L 10.886719 -2.453125 L 10.886719 -5.242188 L 13.503906 -5.242188 C 14.273438 -5.242188 15.105469 -5.257812 15.992188 -5.285156 C 16.886719 -5.316406 17.734375 -5.355469 18.53125 -5.398438 C 19.324219 -5.445312 20.023438 -5.492188 20.628906 -5.542969 C 21.171875 -5.589844 21.519531 -5.628906 21.675781 -5.65625 L 22.1875 -2.917969 L 19.617188 -3.996094 L 23.042969 -12.167969 L 30.308594 -12.167969 L 27.023438 2.785156 L -3.628906 2.785156 L -2.492188 -4.140625 L 3.609375 -5.070312 L 4.03125 -2.316406 L 1.285156 -2.800781 L 5.941406 -29.246094 L 8.683594 -28.765625 L 8.253906 -26.011719 L 1.597656 -27.054688 L 2.808594 -33.84375 L 23.824219 -33.84375 L 22.582031 -26.863281 Z M 19.839844 -32.132812 L 20.195312 -29.367188 L 17.453125 -29.855469 L 17.753906 -31.546875 L 20.496094 -31.058594 L 20.496094 -28.269531 L 5.140625 -28.269531 L 5.140625 -31.058594 L 7.886719 -30.570312 L 7.585938 -28.878906 L 4.839844 -29.367188 L 5.273438 -32.121094 L 11.921875 -31.078125 L 6.429688 0.136719 L 0.351562 1.0625 L -0.0703125 -1.691406 L 2.679688 -1.238281 L 2.402344 0.453125 L -0.347656 0 L -0.347656 -2.785156 L 24.78125 -2.785156 L 24.78125 0 L 22.058594 -0.597656 L 24.121094 -9.976562 L 26.84375 -9.378906 L 26.84375 -6.59375 L 24.898438 -6.59375 L 24.898438 -9.378906 L 27.46875 -8.300781 L 24.175781 -0.457031 L 22.699219 -0.179688 C 22.363281 -0.117188 21.832031 -0.0546875 21.105469 0.0078125 C 20.445312 0.0664062 19.691406 0.117188 18.847656 0.164062 C 18.007812 0.210938 17.117188 0.253906 16.179688 0.285156 C 15.226562 0.316406 14.335938 0.332031 13.503906 0.332031 L 7.566406 0.332031 L 13.128906 -31.265625 Z M 19.839844 -32.132812 "/></g></g><g style="fill:#e9684d;fill-opacity:1;"><g transform="translate(80.95115, 54.721038)"><path style="stroke:none" d="M 10.75 -2.3125 L 14.609375 -1.71875 L 14.3125 0 L -0.46875 0 L -0.15625 -1.71875 L 3.921875 -2.3125 L 8.5625 -28.75 L 4.703125 -29.375 L 5 -31.0625 L 19.796875 -31.0625 L 19.5 -29.375 L 15.40625 -28.75 Z M 10.75 -2.3125 "/></g></g><g style="fill:#e9684d;fill-opacity:1;"><g transform="translate(97.318849, 54.721038)"><path style="stroke:none" d=""/></g></g><g style="fill:#e9684d;fill-opacity:1;"><g transform="translate(107.087244, 54.721038)"><path style="stroke:none" d="M 41.828125 -28.765625 L 28.125 0.71875 L 25.9375 0.71875 L 22.28125 -18.921875 L 12.96875 0.71875 L 10.625 0.71875 L 6.28125 -28.765625 L 3.265625 -29.375 L 3.5625 -31.0625 L 16.625 -31.0625 L 16.328125 -29.375 L 12.578125 -28.765625 L 15.03125 -9.90625 L 24.234375 -29.109375 L 26.546875 -29.109375 L 30.0625 -9.796875 L 38.453125 -28.765625 L 34.65625 -29.375 L 34.953125 -31.0625 L 44.953125 -31.0625 L 44.65625 -29.375 Z M 41.828125 -28.765625 "/></g></g><g style="fill:#e9684d;fill-opacity:1;"><g transform="translate(147.166132, 54.721038)"><path style="stroke:none" d="M 10.75 -2.3125 L 14.609375 -1.71875 L 14.3125 0 L -0.46875 0 L -0.15625 -1.71875 L 3.921875 -2.3125 L 8.5625 -28.75 L 4.703125 -29.375 L 5 -31.0625 L 19.796875 -31.0625 L 19.5 -29.375 L 15.40625 -28.75 Z M 10.75 -2.3125 "/></g></g><g style="fill:#e9684d;fill-opacity:1;"><g transform="translate(163.533832, 54.721038)"><path style="stroke:none" d="M 20.203125 -29.375 L 15.515625 -28.765625 L 10.890625 -2.453125 L 13.5 -2.453125 C 14.300781 -2.453125 15.160156 -2.46875 16.078125 -2.5 C 17.003906 -2.53125 17.875 -2.566406 18.6875 -2.609375 C 19.507812 -2.660156 20.234375 -2.710938 20.859375 -2.765625 C 21.492188 -2.816406 21.9375 -2.867188 22.1875 -2.921875 L 24.90625 -9.375 L 26.84375 -9.375 L 24.78125 0 L -0.34375 0 L -0.0625 -1.6875 L 4.03125 -2.3125 L 8.6875 -28.765625 L 4.84375 -29.375 L 5.140625 -31.0625 L 20.5 -31.0625 Z M 20.203125 -29.375 "/></g></g><g style="fill:#e9684d;fill-opacity:1;"><g transform="translate(190.41411, 54.721038)"><path style="stroke:none" d="M 20.203125 -29.375 L 15.515625 -28.765625 L 10.890625 -2.453125 L 13.5 -2.453125 C 14.300781 -2.453125 15.160156 -2.46875 16.078125 -2.5 C 17.003906 -2.53125 17.875 -2.566406 18.6875 -2.609375 C 19.507812 -2.660156 20.234375 -2.710938 20.859375 -2.765625 C 21.492188 -2.816406 21.9375 -2.867188 22.1875 -2.921875 L 24.90625 -9.375 L 26.84375 -9.375 L 24.78125 0 L -0.34375 0 L -0.0625 -1.6875 L 4.03125 -2.3125 L 8.6875 -28.765625 L 4.84375 -29.375 L 5.140625 -31.0625 L 20.5 -31.0625 Z M 20.203125 -29.375 "/></g></g><g style="fill:#e9684d;fill-opacity:1;"><g transform="translate(104.288676, 126.403074)"><path style="stroke:none" d="M 5.890625 -0.609375 L 5.5625 -1.765625 C 5.394531 -1.640625 5.171875 -1.546875 4.890625 -1.484375 C 4.617188 -1.421875 4.359375 -1.390625 4.109375 -1.390625 C 4.003906 -1.390625 3.898438 -1.40625 3.796875 -1.4375 C 3.703125 -1.46875 3.59375 -1.539062 3.46875 -1.65625 C 3.34375 -1.769531 3.238281 -1.921875 3.15625 -2.109375 C 3.070312 -2.304688 3 -2.585938 2.9375 -2.953125 C 2.875 -3.316406 2.84375 -3.738281 2.84375 -4.21875 C 2.84375 -5.019531 2.890625 -5.632812 2.984375 -6.0625 C 3.078125 -6.5 3.207031 -6.789062 3.375 -6.9375 C 3.550781 -7.09375 3.804688 -7.171875 4.140625 -7.171875 C 4.191406 -7.171875 4.265625 -7.15625 4.359375 -7.125 L 4.734375 -6.265625 L 5.84375 -6.265625 L 5.953125 -7.9375 C 5.941406 -7.957031 5.921875 -7.984375 5.890625 -8.015625 C 5.859375 -8.054688 5.78125 -8.117188 5.65625 -8.203125 C 5.53125 -8.296875 5.390625 -8.375 5.234375 -8.4375 C 5.078125 -8.507812 4.863281 -8.570312 4.59375 -8.625 C 4.332031 -8.675781 4.050781 -8.703125 3.75 -8.703125 C 3.09375 -8.703125 2.535156 -8.601562 2.078125 -8.40625 C 1.617188 -8.207031 1.257812 -7.90625 1 -7.5 C 0.738281 -7.101562 0.550781 -6.644531 0.4375 -6.125 C 0.332031 -5.601562 0.28125 -4.984375 0.28125 -4.265625 C 0.28125 -3.585938 0.332031 -2.988281 0.4375 -2.46875 C 0.550781 -1.957031 0.734375 -1.5 0.984375 -1.09375 C 1.242188 -0.6875 1.597656 -0.375 2.046875 -0.15625 C 2.503906 0.0507812 3.054688 0.15625 3.703125 0.15625 C 4.003906 0.15625 4.285156 0.128906 4.546875 0.078125 C 4.804688 0.0234375 5.015625 -0.0351562 5.171875 -0.109375 C 5.335938 -0.179688 5.476562 -0.253906 5.59375 -0.328125 C 5.707031 -0.410156 5.785156 -0.476562 5.828125 -0.53125 Z M 5.890625 -0.609375 "/></g></g><g style="fill:#e9684d;fill-opacity:1;"><g transform="translate(110.354293, 126.403074)"><path style="stroke:none" d="M 2.96875 -3.3125 L 2.96875 -5.140625 C 2.96875 -6.023438 3.03125 -6.632812 3.15625 -6.96875 C 3.28125 -7.300781 3.5 -7.46875 3.8125 -7.46875 C 4.125 -7.46875 4.347656 -7.296875 4.484375 -6.953125 C 4.617188 -6.609375 4.6875 -6.09375 4.6875 -5.40625 L 4.6875 -3.640625 C 4.6875 -2.921875 4.65625 -2.378906 4.59375 -2.015625 C 4.53125 -1.660156 4.441406 -1.425781 4.328125 -1.3125 C 4.210938 -1.195312 4.039062 -1.140625 3.8125 -1.140625 C 3.5 -1.140625 3.28125 -1.296875 3.15625 -1.609375 C 3.03125 -1.929688 2.96875 -2.5 2.96875 -3.3125 Z M 3.65625 0.15625 C 4.25 0.15625 4.765625 0.0859375 5.203125 -0.046875 C 5.640625 -0.179688 5.992188 -0.363281 6.265625 -0.59375 C 6.546875 -0.832031 6.769531 -1.140625 6.9375 -1.515625 C 7.101562 -1.898438 7.21875 -2.304688 7.28125 -2.734375 C 7.34375 -3.171875 7.375 -3.679688 7.375 -4.265625 C 7.375 -4.660156 7.359375 -5.015625 7.328125 -5.328125 C 7.304688 -5.640625 7.265625 -5.953125 7.203125 -6.265625 C 7.140625 -6.585938 7.054688 -6.863281 6.953125 -7.09375 C 6.847656 -7.332031 6.707031 -7.554688 6.53125 -7.765625 C 6.363281 -7.972656 6.160156 -8.140625 5.921875 -8.265625 C 5.691406 -8.398438 5.410156 -8.503906 5.078125 -8.578125 C 4.753906 -8.660156 4.390625 -8.703125 3.984375 -8.703125 C 3.390625 -8.703125 2.875 -8.632812 2.4375 -8.5 C 2 -8.363281 1.640625 -8.175781 1.359375 -7.9375 C 1.085938 -7.695312 0.867188 -7.382812 0.703125 -7 C 0.535156 -6.625 0.421875 -6.21875 0.359375 -5.78125 C 0.304688 -5.34375 0.28125 -4.832031 0.28125 -4.25 C 0.28125 -3.851562 0.289062 -3.5 0.3125 -3.1875 C 0.332031 -2.875 0.375 -2.5625 0.4375 -2.25 C 0.507812 -1.9375 0.597656 -1.660156 0.703125 -1.421875 C 0.804688 -1.191406 0.941406 -0.972656 1.109375 -0.765625 C 1.285156 -0.554688 1.488281 -0.382812 1.71875 -0.25 C 1.957031 -0.125 2.238281 -0.0234375 2.5625 0.046875 C 2.882812 0.117188 3.25 0.15625 3.65625 0.15625 Z M 3.65625 0.15625 "/></g></g><g style="fill:#e9684d;fill-opacity:1;"><g transform="translate(118.005737, 126.403074)"><path style="stroke:none" d="M 3.796875 0.15625 C 4.304688 0.15625 4.753906 0.101562 5.140625 0 C 5.535156 -0.09375 5.851562 -0.21875 6.09375 -0.375 C 6.332031 -0.539062 6.523438 -0.742188 6.671875 -0.984375 C 6.816406 -1.234375 6.914062 -1.488281 6.96875 -1.75 C 7.03125 -2.019531 7.0625 -2.316406 7.0625 -2.640625 L 7.0625 -8.5625 L 4.75 -8.5625 L 4.75 -3 C 4.75 -2.6875 4.726562 -2.421875 4.6875 -2.203125 C 4.644531 -1.984375 4.578125 -1.816406 4.484375 -1.703125 C 4.398438 -1.585938 4.304688 -1.503906 4.203125 -1.453125 C 4.097656 -1.410156 3.976562 -1.390625 3.84375 -1.390625 C 3.59375 -1.390625 3.398438 -1.503906 3.265625 -1.734375 C 3.140625 -1.972656 3.078125 -2.398438 3.078125 -3.015625 L 3.078125 -8.5625 L 0.484375 -8.5625 L 0.484375 -2.6875 C 0.484375 -2.351562 0.515625 -2.050781 0.578125 -1.78125 C 0.640625 -1.507812 0.75 -1.25 0.90625 -1 C 1.0625 -0.757812 1.265625 -0.554688 1.515625 -0.390625 C 1.765625 -0.222656 2.082031 -0.09375 2.46875 0 C 2.851562 0.101562 3.296875 0.15625 3.796875 0.15625 Z M 3.796875 0.15625 "/></g></g><g style="fill:#e9684d;fill-opacity:1;"><g transform="translate(125.554866, 126.403074)"><path style="stroke:none" d="M 2.8125 0 L 2.8125 -2.703125 L 2.375 -5.5 L 3.453125 -3.390625 L 5.203125 0 L 7.421875 0 L 7.421875 -8.5625 L 5.09375 -8.5625 L 5.09375 -6.265625 L 5.453125 -3.015625 L 4.171875 -5.78125 L 2.828125 -8.5625 L 0.125 -8.5625 L 0.484375 -7.875 L 0.484375 0 Z M 2.8125 0 "/></g></g><g style="fill:#e9684d;fill-opacity:1;"><g transform="translate(133.469399, 126.403074)"><path style="stroke:none" d="M 1.84375 0 L 4.3125 0 L 4.3125 -6.625 L 6.03125 -6.625 L 6.03125 -8.5625 L 0.140625 -8.5625 L 0.140625 -6.625 L 1.84375 -6.625 Z M 1.84375 0 "/></g></g><g style="fill:#e9684d;fill-opacity:1;"><g transform="translate(139.651944, 126.403074)"><path style="stroke:none" d="M 3.375 -1.203125 L 2.90625 -1.203125 L 2.90625 -7.296875 L 3.453125 -7.296875 C 3.796875 -7.296875 4.054688 -7.085938 4.234375 -6.671875 C 4.421875 -6.253906 4.515625 -5.660156 4.515625 -4.890625 L 4.515625 -4.15625 C 4.515625 -3.101562 4.414062 -2.347656 4.21875 -1.890625 C 4.03125 -1.429688 3.75 -1.203125 3.375 -1.203125 Z M 3.609375 0.046875 C 4.140625 0.046875 4.613281 -0.0390625 5.03125 -0.21875 C 5.445312 -0.40625 5.78125 -0.644531 6.03125 -0.9375 C 6.289062 -1.238281 6.503906 -1.59375 6.671875 -2 C 6.835938 -2.414062 6.953125 -2.828125 7.015625 -3.234375 C 7.078125 -3.648438 7.109375 -4.082031 7.109375 -4.53125 C 7.109375 -5.875 6.835938 -6.890625 6.296875 -7.578125 C 5.753906 -8.273438 4.863281 -8.625 3.625 -8.625 C 3.40625 -8.625 3.101562 -8.613281 2.71875 -8.59375 C 2.332031 -8.582031 1.976562 -8.570312 1.65625 -8.5625 L 0.484375 -8.5625 L 0.484375 0 L 1.65625 0 C 2.039062 0 2.414062 0.00390625 2.78125 0.015625 C 3.15625 0.0351562 3.429688 0.046875 3.609375 0.046875 Z M 3.609375 0.046875 "/></g></g><g style="fill:#e9684d;fill-opacity:1;"><g transform="translate(146.952606, 126.403074)"><path style="stroke:none" d="M 2.96875 -3.3125 L 2.96875 -5.140625 C 2.96875 -6.023438 3.03125 -6.632812 3.15625 -6.96875 C 3.28125 -7.300781 3.5 -7.46875 3.8125 -7.46875 C 4.125 -7.46875 4.347656 -7.296875 4.484375 -6.953125 C 4.617188 -6.609375 4.6875 -6.09375 4.6875 -5.40625 L 4.6875 -3.640625 C 4.6875 -2.921875 4.65625 -2.378906 4.59375 -2.015625 C 4.53125 -1.660156 4.441406 -1.425781 4.328125 -1.3125 C 4.210938 -1.195312 4.039062 -1.140625 3.8125 -1.140625 C 3.5 -1.140625 3.28125 -1.296875 3.15625 -1.609375 C 3.03125 -1.929688 2.96875 -2.5 2.96875 -3.3125 Z M 3.65625 0.15625 C 4.25 0.15625 4.765625 0.0859375 5.203125 -0.046875 C 5.640625 -0.179688 5.992188 -0.363281 6.265625 -0.59375 C 6.546875 -0.832031 6.769531 -1.140625 6.9375 -1.515625 C 7.101562 -1.898438 7.21875 -2.304688 7.28125 -2.734375 C 7.34375 -3.171875 7.375 -3.679688 7.375 -4.265625 C 7.375 -4.660156 7.359375 -5.015625 7.328125 -5.328125 C 7.304688 -5.640625 7.265625 -5.953125 7.203125 -6.265625 C 7.140625 -6.585938 7.054688 -6.863281 6.953125 -7.09375 C 6.847656 -7.332031 6.707031 -7.554688 6.53125 -7.765625 C 6.363281 -7.972656 6.160156 -8.140625 5.921875 -8.265625 C 5.691406 -8.398438 5.410156 -8.503906 5.078125 -8.578125 C 4.753906 -8.660156 4.390625 -8.703125 3.984375 -8.703125 C 3.390625 -8.703125 2.875 -8.632812 2.4375 -8.5 C 2 -8.363281 1.640625 -8.175781 1.359375 -7.9375 C 1.085938 -7.695312 0.867188 -7.382812 0.703125 -7 C 0.535156 -6.625 0.421875 -6.21875 0.359375 -5.78125 C 0.304688 -5.34375 0.28125 -4.832031 0.28125 -4.25 C 0.28125 -3.851562 0.289062 -3.5 0.3125 -3.1875 C 0.332031 -2.875 0.375 -2.5625 0.4375 -2.25 C 0.507812 -1.9375 0.597656 -1.660156 0.703125 -1.421875 C 0.804688 -1.191406 0.941406 -0.972656 1.109375 -0.765625 C 1.285156 -0.554688 1.488281 -0.382812 1.71875 -0.25 C 1.957031 -0.125 2.238281 -0.0234375 2.5625 0.046875 C 2.882812 0.117188 3.25 0.15625 3.65625 0.15625 Z M 3.65625 0.15625 "/></g></g><g style="fill:#e9684d;fill-opacity:1;"><g transform="translate(154.60405, 126.403074)"><path style="stroke:none" d="M 4.015625 0 L 4.765625 -3.4375 L 5.671875 0 L 8.15625 0 L 10.046875 -8.5625 L 7.828125 -8.5625 L 7.390625 -5.609375 L 7 -2.75 L 6.34375 -5.609375 L 5.828125 -8.5625 L 3.4375 -8.5625 L 4 -6.390625 L 3.8125 -5.609375 L 3.0625 -2.75 L 2.484375 -5.609375 L 2.109375 -8.5625 L -0.328125 -8.5625 L 1.703125 0 Z M 4.015625 0 "/></g></g><g style="fill:#e9684d;fill-opacity:1;"><g transform="translate(164.323643, 126.403074)"><path style="stroke:none" d="M 2.8125 0 L 2.8125 -2.703125 L 2.375 -5.5 L 3.453125 -3.390625 L 5.203125 0 L 7.421875 0 L 7.421875 -8.5625 L 5.09375 -8.5625 L 5.09375 -6.265625 L 5.453125 -3.015625 L 4.171875 -5.78125 L 2.828125 -8.5625 L 0.125 -8.5625 L 0.484375 -7.875 L 0.484375 0 Z M 2.8125 0 "/></g></g><g style="fill:#e9684d;fill-opacity:1;"><g transform="translate(172.238177, 126.403074)"><path style="stroke:none" d=""/></g></g><g style="fill:#e9684d;fill-opacity:1;"><g transform="translate(175.161364, 126.403074)"><path style="stroke:none" d="M 4.6875 0 L 7.375 0 L 4.9375 -8.5625 L 1.921875 -8.5625 L 2.09375 -7.96875 L -0.140625 0 L 2.015625 0 L 2.28125 -1.359375 L 4.359375 -1.359375 Z M 3.234375 -6.046875 L 4 -2.859375 L 2.59375 -2.859375 Z M 3.234375 -6.046875 "/></g></g><g style="fill:#e9684d;fill-opacity:1;"><g transform="translate(182.330475, 126.403074)"><path style="stroke:none" d="M 2.90625 0 L 2.90625 -1.8125 C 2.914062 -1.8125 2.945312 -1.804688 3 -1.796875 C 3.050781 -1.796875 3.085938 -1.796875 3.109375 -1.796875 C 3.128906 -1.796875 3.164062 -1.796875 3.21875 -1.796875 C 3.269531 -1.796875 3.3125 -1.789062 3.34375 -1.78125 C 3.375 -1.78125 3.414062 -1.78125 3.46875 -1.78125 C 3.53125 -1.78125 3.582031 -1.773438 3.625 -1.765625 C 3.664062 -1.765625 3.710938 -1.765625 3.765625 -1.765625 C 3.816406 -1.765625 3.867188 -1.765625 3.921875 -1.765625 C 4.296875 -1.765625 4.65625 -1.847656 5 -2.015625 C 5.34375 -2.191406 5.644531 -2.4375 5.90625 -2.75 C 6.175781 -3.070312 6.390625 -3.476562 6.546875 -3.96875 C 6.703125 -4.46875 6.78125 -5.019531 6.78125 -5.625 C 6.78125 -6.625 6.535156 -7.375 6.046875 -7.875 C 5.566406 -8.375 4.851562 -8.625 3.90625 -8.625 C 3.570312 -8.625 3.144531 -8.613281 2.625 -8.59375 C 2.101562 -8.570312 1.710938 -8.5625 1.453125 -8.5625 L 0.484375 -8.5625 L 0.484375 0 Z M 4.390625 -5.9375 L 4.390625 -4.859375 C 4.390625 -4.367188 4.28125 -3.992188 4.0625 -3.734375 C 3.851562 -3.484375 3.554688 -3.359375 3.171875 -3.359375 L 2.90625 -3.359375 L 2.90625 -7.15625 L 3.265625 -7.15625 C 3.628906 -7.15625 3.90625 -7.039062 4.09375 -6.8125 C 4.289062 -6.59375 4.390625 -6.300781 4.390625 -5.9375 Z M 4.390625 -5.9375 "/></g></g><g style="fill:#e9684d;fill-opacity:1;"><g transform="translate(189.18535, 126.403074)"><path style="stroke:none" d="M 2.90625 0 L 2.90625 -1.8125 C 2.914062 -1.8125 2.945312 -1.804688 3 -1.796875 C 3.050781 -1.796875 3.085938 -1.796875 3.109375 -1.796875 C 3.128906 -1.796875 3.164062 -1.796875 3.21875 -1.796875 C 3.269531 -1.796875 3.3125 -1.789062 3.34375 -1.78125 C 3.375 -1.78125 3.414062 -1.78125 3.46875 -1.78125 C 3.53125 -1.78125 3.582031 -1.773438 3.625 -1.765625 C 3.664062 -1.765625 3.710938 -1.765625 3.765625 -1.765625 C 3.816406 -1.765625 3.867188 -1.765625 3.921875 -1.765625 C 4.296875 -1.765625 4.65625 -1.847656 5 -2.015625 C 5.34375 -2.191406 5.644531 -2.4375 5.90625 -2.75 C 6.175781 -3.070312 6.390625 -3.476562 6.546875 -3.96875 C 6.703125 -4.46875 6.78125 -5.019531 6.78125 -5.625 C 6.78125 -6.625 6.535156 -7.375 6.046875 -7.875 C 5.566406 -8.375 4.851562 -8.625 3.90625 -8.625 C 3.570312 -8.625 3.144531 -8.613281 2.625 -8.59375 C 2.101562 -8.570312 1.710938 -8.5625 1.453125 -8.5625 L 0.484375 -8.5625 L 0.484375 0 Z M 4.390625 -5.9375 L 4.390625 -4.859375 C 4.390625 -4.367188 4.28125 -3.992188 4.0625 -3.734375 C 3.851562 -3.484375 3.554688 -3.359375 3.171875 -3.359375 L 2.90625 -3.359375 L 2.90625 -7.15625 L 3.265625 -7.15625 C 3.628906 -7.15625 3.90625 -7.039062 4.09375 -6.8125 C 4.289062 -6.59375 4.390625 -6.300781 4.390625 -5.9375 Z M 4.390625 -5.9375 "/></g></g></g></svg>