<svg xmlns="http://www.w3.org/2000/svg" xmlns:xlink="http://www.w3.org/1999/xlink" width="341" zoomAndPan="magnify" viewBox="0 0 255.75 157.5" height="210" preserveAspectRatio="xMidYMid meet" version="1.2"><defs/><g id="3da613d63d"><path style=" stroke:none;fill-rule:nonzero;fill:#000000;fill-opacity:1;" d="M 62.964844 107.644531 C 81.929688 118.664062 51.277344 136.242188 51.347656 114.308594 C 51.285156 136.238281 20.738281 118.484375 39.761719 107.574219 C 20.738281 118.484375 20.839844 83.140625 39.800781 94.171875 C 20.835938 83.148438 51.488281 65.570312 51.425781 87.507812 C 51.488281 65.574219 82.039062 83.332031 63.011719 94.242188 C 82.03125 83.332031 81.925781 118.664062 62.964844 107.644531 Z M 62.964844 107.644531 "/><path style=" stroke:none;fill-rule:nonzero;fill:#000000;fill-opacity:1;" d="M 51.808594 92.210938 C 51.960938 92.210938 52.085938 92.261719 52.191406 92.367188 C 52.296875 92.472656 52.347656 92.601562 52.347656 92.75 L 52.347656 96.542969 C 52.347656 96.691406 52.296875 96.820312 52.191406 96.925781 C 52.085938 97.03125 51.960938 97.082031 51.808594 97.082031 C 51.660156 97.082031 51.535156 97.03125 51.429688 96.925781 C 51.324219 96.820312 51.269531 96.691406 51.269531 96.542969 L 51.269531 92.75 C 51.269531 92.601562 51.324219 92.472656 51.429688 92.367188 C 51.535156 92.261719 51.660156 92.210938 51.808594 92.210938 Z M 51.808594 92.210938 "/><path style=" stroke:none;fill-rule:nonzero;fill:#000000;fill-opacity:1;" d="M 45.53125 94.453125 C 45.636719 94.347656 45.761719 94.296875 45.910156 94.296875 C 46.0625 94.296875 46.1875 94.347656 46.292969 94.453125 L 48.976562 97.136719 C 49.082031 97.242188 49.132812 97.367188 49.132812 97.515625 C 49.132812 97.667969 49.082031 97.792969 48.976562 97.898438 C 48.871094 98.003906 48.742188 98.054688 48.59375 98.054688 C 48.445312 98.054688 48.320312 98.003906 48.214844 97.898438 L 45.53125 95.214844 C 45.425781 95.109375 45.375 94.984375 45.371094 94.835938 C 45.371094 94.683594 45.425781 94.558594 45.53125 94.453125 Z M 45.53125 94.453125 "/><path style=" stroke:none;fill-rule:nonzero;fill:#000000;fill-opacity:1;" d="M 42.675781 100.476562 C 42.675781 100.328125 42.730469 100.203125 42.835938 100.097656 C 42.941406 99.992188 43.070312 99.9375 43.21875 99.9375 L 47.011719 99.9375 C 47.160156 99.9375 47.285156 99.992188 47.390625 100.097656 C 47.496094 100.203125 47.550781 100.328125 47.550781 100.476562 C 47.550781 100.628906 47.496094 100.753906 47.390625 100.859375 C 47.285156 100.964844 47.160156 101.015625 47.011719 101.015625 L 43.21875 101.015625 C 43.070312 101.015625 42.941406 100.964844 42.835938 100.859375 C 42.730469 100.753906 42.675781 100.628906 42.675781 100.476562 Z M 42.675781 100.476562 "/><path style=" stroke:none;fill-rule:nonzero;fill:#000000;fill-opacity:1;" d="M 44.921875 106.757812 C 44.816406 106.652344 44.765625 106.523438 44.765625 106.375 C 44.765625 106.226562 44.816406 106.097656 44.921875 105.992188 L 47.605469 103.3125 C 47.710938 103.207031 47.839844 103.152344 47.988281 103.152344 C 48.136719 103.152344 48.261719 103.207031 48.367188 103.3125 C 48.472656 103.417969 48.527344 103.542969 48.527344 103.691406 C 48.527344 103.839844 48.472656 103.96875 48.367188 104.074219 L 45.6875 106.757812 C 45.582031 106.863281 45.453125 106.914062 45.304688 106.914062 C 45.15625 106.914062 45.027344 106.863281 44.921875 106.757812 Z M 44.921875 106.757812 "/><path style=" stroke:none;fill-rule:nonzero;fill:#000000;fill-opacity:1;" d="M 50.949219 109.609375 C 50.796875 109.609375 50.671875 109.558594 50.566406 109.453125 C 50.460938 109.347656 50.410156 109.21875 50.410156 109.070312 L 50.410156 105.277344 C 50.410156 105.128906 50.460938 105 50.566406 104.894531 C 50.671875 104.792969 50.796875 104.738281 50.949219 104.738281 C 51.097656 104.738281 51.222656 104.792969 51.328125 104.894531 C 51.433594 105 51.488281 105.128906 51.488281 105.277344 L 51.488281 109.070312 C 51.488281 109.21875 51.433594 109.347656 51.328125 109.453125 C 51.222656 109.558594 51.097656 109.609375 50.949219 109.609375 Z M 50.949219 109.609375 "/><path style=" stroke:none;fill-rule:nonzero;fill:#000000;fill-opacity:1;" d="M 57.226562 107.367188 C 57.121094 107.472656 56.992188 107.523438 56.84375 107.523438 C 56.695312 107.523438 56.566406 107.472656 56.460938 107.367188 L 53.78125 104.683594 C 53.675781 104.578125 53.621094 104.453125 53.621094 104.304688 C 53.621094 104.152344 53.675781 104.027344 53.78125 103.921875 C 53.882812 103.816406 54.011719 103.761719 54.160156 103.765625 C 54.308594 103.765625 54.4375 103.816406 54.542969 103.921875 L 57.222656 106.605469 C 57.328125 106.710938 57.382812 106.835938 57.382812 106.984375 C 57.382812 107.132812 57.332031 107.261719 57.226562 107.367188 Z M 57.226562 107.367188 "/><path style=" stroke:none;fill-rule:nonzero;fill:#000000;fill-opacity:1;" d="M 60.078125 101.339844 C 60.078125 101.488281 60.027344 101.617188 59.921875 101.722656 C 59.816406 101.828125 59.6875 101.878906 59.539062 101.878906 L 55.746094 101.878906 C 55.597656 101.878906 55.46875 101.828125 55.363281 101.722656 C 55.257812 101.617188 55.207031 101.488281 55.207031 101.339844 C 55.207031 101.191406 55.257812 101.066406 55.363281 100.960938 C 55.46875 100.855469 55.597656 100.800781 55.746094 100.800781 L 59.539062 100.800781 C 59.6875 100.800781 59.816406 100.855469 59.921875 100.960938 C 60.027344 101.066406 60.078125 101.191406 60.078125 101.339844 Z M 60.078125 101.339844 "/><path style=" stroke:none;fill-rule:nonzero;fill:#000000;fill-opacity:1;" d="M 57.835938 95.0625 C 57.941406 95.167969 57.996094 95.296875 57.996094 95.445312 C 57.992188 95.59375 57.941406 95.722656 57.835938 95.828125 L 55.152344 98.507812 C 55.046875 98.613281 54.921875 98.667969 54.773438 98.667969 C 54.625 98.667969 54.496094 98.613281 54.390625 98.507812 C 54.285156 98.40625 54.234375 98.277344 54.234375 98.128906 C 54.234375 97.980469 54.285156 97.851562 54.390625 97.746094 L 57.074219 95.066406 C 57.179688 94.960938 57.304688 94.90625 57.457031 94.90625 C 57.605469 94.90625 57.730469 94.960938 57.835938 95.0625 Z M 57.835938 95.0625 "/><path style=" stroke:none;fill-rule:nonzero;fill:#000000;fill-opacity:1;" d="M 53.546875 100.910156 C 53.546875 101.195312 53.492188 101.472656 53.382812 101.738281 C 53.273438 102.003906 53.113281 102.238281 52.910156 102.441406 C 52.707031 102.644531 52.472656 102.800781 52.207031 102.914062 C 51.941406 103.023438 51.667969 103.078125 51.378906 103.078125 C 51.089844 103.078125 50.816406 103.023438 50.550781 102.914062 C 50.285156 102.800781 50.050781 102.644531 49.847656 102.441406 C 49.640625 102.238281 49.484375 102.003906 49.375 101.738281 C 49.265625 101.472656 49.210938 101.195312 49.210938 100.910156 C 49.210938 100.621094 49.265625 100.34375 49.375 100.082031 C 49.484375 99.816406 49.640625 99.578125 49.847656 99.375 C 50.050781 99.171875 50.285156 99.015625 50.550781 98.90625 C 50.816406 98.796875 51.089844 98.742188 51.378906 98.742188 C 51.667969 98.742188 51.941406 98.796875 52.207031 98.90625 C 52.472656 99.015625 52.707031 99.171875 52.910156 99.375 C 53.113281 99.578125 53.273438 99.816406 53.382812 100.082031 C 53.492188 100.34375 53.546875 100.621094 53.546875 100.910156 Z M 53.546875 100.910156 "/><g style="fill:#000000;fill-opacity:1;"><g transform="translate(38.913059, 68.744173)"><path style="stroke:none" d="M 13.75 -45.734375 L 13.75 0 L 3.328125 0 L 3.328125 -45.734375 Z M 13.75 -45.734375 "/></g></g><g style="fill:#000000;fill-opacity:1;"><g transform="translate(53.272084, 68.744173)"><path style="stroke:none" d=""/></g></g><g style="fill:#000000;fill-opacity:1;"><g transform="translate(65.690663, 68.744173)"><path style="stroke:none" d="M 38.421875 0 L 31.09375 -25.671875 L 23.78125 0 L 12.203125 0 L -0.828125 -45.734375 L 10.75 -45.734375 L 18.578125 -14.359375 L 18.84375 -14.359375 L 27.171875 -45.734375 L 35.03125 -45.734375 L 43.359375 -14.359375 L 43.625 -14.359375 L 51.453125 -45.734375 L 62.984375 -45.734375 L 49.953125 0 Z M 38.421875 0 "/></g></g><g style="fill:#000000;fill-opacity:1;"><g transform="translate(125.123392, 68.744173)"><path style="stroke:none" d="M 13.75 -45.734375 L 13.75 0 L 3.328125 0 L 3.328125 -45.734375 Z M 13.75 -45.734375 "/></g></g><g style="fill:#000000;fill-opacity:1;"><g transform="translate(139.482417, 68.744173)"><path style="stroke:none" d="M 13.75 -45.734375 L 13.75 -9.140625 L 29.5 -9.140625 L 29.5 0 L 3.328125 0 L 3.328125 -45.734375 Z M 13.75 -45.734375 "/></g></g><g style="fill:#000000;fill-opacity:1;"><g transform="translate(168.089833, 68.744173)"><path style="stroke:none" d="M 13.75 -45.734375 L 13.75 -9.140625 L 29.5 -9.140625 L 29.5 0 L 3.328125 0 L 3.328125 -45.734375 Z M 13.75 -45.734375 "/></g></g><g style="fill:#000000;fill-opacity:1;"><g transform="translate(75.203824, 118.783007)"><path style="stroke:none" d="M 27.65625 -9.421875 C 29.25 -9.421875 30.789062 -9.660156 32.28125 -10.140625 C 33.78125 -10.617188 34.882812 -11.082031 35.59375 -11.53125 L 36.640625 -12.25 L 41.078125 -3.375 C 40.929688 -3.269531 40.726562 -3.125 40.46875 -2.9375 C 40.207031 -2.75 39.601562 -2.40625 38.65625 -1.90625 C 37.71875 -1.414062 36.710938 -0.984375 35.640625 -0.609375 C 34.566406 -0.242188 33.160156 0.0820312 31.421875 0.375 C 29.691406 0.675781 27.90625 0.828125 26.0625 0.828125 C 21.8125 0.828125 17.78125 -0.210938 13.96875 -2.296875 C 10.164062 -4.390625 7.097656 -7.265625 4.765625 -10.921875 C 2.441406 -14.578125 1.28125 -18.53125 1.28125 -22.78125 C 1.28125 -26 1.960938 -29.085938 3.328125 -32.046875 C 4.691406 -35.003906 6.507812 -37.535156 8.78125 -39.640625 C 11.0625 -41.742188 13.710938 -43.421875 16.734375 -44.671875 C 19.765625 -45.929688 22.875 -46.5625 26.0625 -46.5625 C 29.007812 -46.5625 31.726562 -46.207031 34.21875 -45.5 C 36.71875 -44.800781 38.488281 -44.101562 39.53125 -43.40625 L 41.078125 -42.359375 L 36.640625 -33.484375 C 36.378906 -33.703125 35.988281 -33.96875 35.46875 -34.28125 C 34.957031 -34.601562 33.925781 -35.019531 32.375 -35.53125 C 30.820312 -36.050781 29.25 -36.3125 27.65625 -36.3125 C 25.144531 -36.3125 22.890625 -35.90625 20.890625 -35.09375 C 18.898438 -34.28125 17.320312 -33.207031 16.15625 -31.875 C 14.988281 -30.539062 14.097656 -29.109375 13.484375 -27.578125 C 12.878906 -26.046875 12.578125 -24.484375 12.578125 -22.890625 C 12.578125 -19.421875 13.878906 -16.304688 16.484375 -13.546875 C 19.097656 -10.796875 22.820312 -9.421875 27.65625 -9.421875 Z M 27.65625 -9.421875 "/></g></g><g style="fill:#000000;fill-opacity:1;"><g transform="translate(114.234182, 118.783007)"><path style="stroke:none" d="M 1.28125 -22.890625 C 1.28125 -29.503906 3.53125 -35.101562 8.03125 -39.6875 C 12.539062 -44.269531 17.976562 -46.5625 24.34375 -46.5625 C 30.726562 -46.5625 36.15625 -44.28125 40.625 -39.71875 C 45.101562 -35.15625 47.34375 -29.546875 47.34375 -22.890625 C 47.34375 -16.203125 45.144531 -10.578125 40.75 -6.015625 C 36.351562 -1.453125 30.882812 0.828125 24.34375 0.828125 C 17.644531 0.828125 12.125 -1.429688 7.78125 -5.953125 C 3.445312 -10.484375 1.28125 -16.128906 1.28125 -22.890625 Z M 12.53125 -22.890625 C 12.53125 -20.492188 12.898438 -18.304688 13.640625 -16.328125 C 14.378906 -14.347656 15.671875 -12.675781 17.515625 -11.3125 C 19.367188 -9.945312 21.644531 -9.265625 24.34375 -9.265625 C 28.21875 -9.265625 31.144531 -10.59375 33.125 -13.25 C 35.101562 -15.90625 36.09375 -19.117188 36.09375 -22.890625 C 36.09375 -26.628906 35.082031 -29.835938 33.0625 -32.515625 C 31.050781 -35.191406 28.144531 -36.53125 24.34375 -36.53125 C 20.570312 -36.53125 17.660156 -35.191406 15.609375 -32.515625 C 13.554688 -29.835938 12.53125 -26.628906 12.53125 -22.890625 Z M 12.53125 -22.890625 "/></g></g><g style="fill:#000000;fill-opacity:1;"><g transform="translate(160.139257, 118.783007)"><path style="stroke:none" d="M 3.328125 -45.734375 L 16.578125 -45.734375 C 22.929688 -45.734375 28.363281 -43.5625 32.875 -39.21875 C 37.382812 -34.875 39.640625 -29.429688 39.640625 -22.890625 C 39.640625 -16.316406 37.394531 -10.859375 32.90625 -6.515625 C 28.414062 -2.171875 22.972656 0 16.578125 0 L 3.328125 0 Z M 13.75 -9.3125 L 15.359375 -9.3125 C 19.160156 -9.3125 22.269531 -10.59375 24.6875 -13.15625 C 27.113281 -15.726562 28.347656 -18.957031 28.390625 -22.84375 C 28.390625 -26.71875 27.175781 -29.945312 24.75 -32.53125 C 22.332031 -35.125 19.203125 -36.421875 15.359375 -36.421875 L 13.75 -36.421875 Z M 13.75 -9.3125 "/></g></g><g style="fill:#000000;fill-opacity:1;"><g transform="translate(198.338005, 118.783007)"><path style="stroke:none" d="M 29.5 -45.734375 L 29.5 -36.59375 L 13.75 -36.59375 L 13.75 -27.5 L 28.828125 -27.5 L 28.828125 -18.34375 L 13.75 -18.34375 L 13.75 -9.140625 L 29.5 -9.140625 L 29.5 0 L 3.328125 0 L 3.328125 -45.734375 Z M 29.5 -45.734375 "/></g></g><g style="fill:#ffffff;fill-opacity:1;"><g transform="translate(42.04659, 104.701285)"><path style="stroke:none" d="M -1.265625 -5.9375 L 0.96875 -1.859375 L 2.734375 -2.8125 L 3.296875 -1.796875 L 0.375 -0.203125 L -2.421875 -5.296875 Z M -1.265625 -5.9375 "/></g></g><g style="fill:#ffffff;fill-opacity:1;"><g transform="translate(45.279796, 102.932801)"><path style="stroke:none" d="M -1.25 -2.625 C -1.65625 -3.363281 -1.75 -4.128906 -1.53125 -4.921875 C -1.3125 -5.710938 -0.84375 -6.300781 -0.125 -6.6875 C 0.582031 -7.070312 1.328125 -7.144531 2.109375 -6.90625 C 2.890625 -6.664062 3.484375 -6.175781 3.890625 -5.4375 C 4.296875 -4.695312 4.390625 -3.9375 4.171875 -3.15625 C 3.960938 -2.375 3.492188 -1.785156 2.765625 -1.390625 C 2.015625 -0.984375 1.257812 -0.898438 0.5 -1.140625 C -0.257812 -1.378906 -0.84375 -1.875 -1.25 -2.625 Z M 0 -3.3125 C 0.144531 -3.050781 0.316406 -2.832031 0.515625 -2.65625 C 0.722656 -2.488281 0.972656 -2.378906 1.265625 -2.328125 C 1.554688 -2.285156 1.851562 -2.347656 2.15625 -2.515625 C 2.582031 -2.753906 2.828125 -3.082031 2.890625 -3.5 C 2.953125 -3.914062 2.867188 -4.332031 2.640625 -4.75 C 2.410156 -5.175781 2.097656 -5.472656 1.703125 -5.640625 C 1.304688 -5.816406 0.898438 -5.789062 0.484375 -5.5625 C 0.0546875 -5.332031 -0.1875 -5.003906 -0.25 -4.578125 C -0.3125 -4.160156 -0.226562 -3.738281 0 -3.3125 Z M 0 -3.3125 "/></g></g><g style="fill:#ffffff;fill-opacity:1;"><g transform="translate(50.441803, 100.10931)"><path style="stroke:none" d="M 1.953125 -1.078125 L -2.96875 -5 L -1.65625 -5.71875 L 1.46875 -3.078125 L 0.921875 -7.125 L 2.21875 -7.84375 L 2.875 -1.578125 Z M 1.953125 -1.078125 "/></g></g><g style="fill:#ffffff;fill-opacity:1;"><g transform="translate(55.028877, 97.600294)"><path style="stroke:none" d="M 0.5 -6.890625 L 1.0625 -5.875 L -0.703125 -4.921875 L -0.140625 -3.921875 L 1.546875 -4.84375 L 2.09375 -3.8125 L 0.40625 -2.890625 L 0.96875 -1.859375 L 2.734375 -2.8125 L 3.296875 -1.796875 L 0.375 -0.203125 L -2.421875 -5.296875 Z M 0.5 -6.890625 "/></g></g><g style="fill:#ffffff;fill-opacity:1;"><g transform="translate(45.26705, 111.640603)"><path style="stroke:none" d="M 2.5 -2.75 C 2.675781 -2.84375 2.835938 -2.957031 2.984375 -3.09375 C 3.128906 -3.238281 3.222656 -3.359375 3.265625 -3.453125 L 3.328125 -3.609375 L 4.375 -2.890625 C 4.363281 -2.859375 4.347656 -2.820312 4.328125 -2.78125 C 4.304688 -2.75 4.257812 -2.675781 4.1875 -2.5625 C 4.125 -2.445312 4.039062 -2.335938 3.9375 -2.234375 C 3.84375 -2.128906 3.707031 -2.007812 3.53125 -1.875 C 3.351562 -1.738281 3.160156 -1.613281 2.953125 -1.5 C 2.472656 -1.238281 1.957031 -1.109375 1.40625 -1.109375 C 0.863281 -1.109375 0.351562 -1.238281 -0.125 -1.5 C -0.613281 -1.769531 -0.988281 -2.140625 -1.25 -2.609375 C -1.445312 -2.972656 -1.554688 -3.363281 -1.578125 -3.78125 C -1.609375 -4.195312 -1.5625 -4.585938 -1.4375 -4.953125 C -1.3125 -5.328125 -1.117188 -5.675781 -0.859375 -6 C -0.597656 -6.332031 -0.289062 -6.597656 0.0625 -6.796875 C 0.394531 -6.972656 0.71875 -7.097656 1.03125 -7.171875 C 1.351562 -7.242188 1.597656 -7.273438 1.765625 -7.265625 L 1.984375 -7.234375 L 2.03125 -5.96875 C 2 -5.976562 1.941406 -5.984375 1.859375 -5.984375 C 1.773438 -5.984375 1.628906 -5.960938 1.421875 -5.921875 C 1.222656 -5.890625 1.035156 -5.828125 0.859375 -5.734375 C 0.578125 -5.578125 0.351562 -5.394531 0.1875 -5.1875 C 0.0195312 -4.976562 -0.0859375 -4.757812 -0.140625 -4.53125 C -0.191406 -4.3125 -0.207031 -4.097656 -0.1875 -3.890625 C -0.164062 -3.691406 -0.101562 -3.5 0 -3.3125 C 0.207031 -2.925781 0.539062 -2.660156 1 -2.515625 C 1.46875 -2.378906 1.96875 -2.457031 2.5 -2.75 Z M 2.5 -2.75 "/></g></g><g style="fill:#ffffff;fill-opacity:1;"><g transform="translate(49.662478, 109.236412)"><path style="stroke:none" d="M -1.25 -2.625 C -1.65625 -3.363281 -1.75 -4.128906 -1.53125 -4.921875 C -1.3125 -5.710938 -0.84375 -6.300781 -0.125 -6.6875 C 0.582031 -7.070312 1.328125 -7.144531 2.109375 -6.90625 C 2.890625 -6.664062 3.484375 -6.175781 3.890625 -5.4375 C 4.296875 -4.695312 4.390625 -3.9375 4.171875 -3.15625 C 3.960938 -2.375 3.492188 -1.785156 2.765625 -1.390625 C 2.015625 -0.984375 1.257812 -0.898438 0.5 -1.140625 C -0.257812 -1.378906 -0.84375 -1.875 -1.25 -2.625 Z M 0 -3.3125 C 0.144531 -3.050781 0.316406 -2.832031 0.515625 -2.65625 C 0.722656 -2.488281 0.972656 -2.378906 1.265625 -2.328125 C 1.554688 -2.285156 1.851562 -2.347656 2.15625 -2.515625 C 2.582031 -2.753906 2.828125 -3.082031 2.890625 -3.5 C 2.953125 -3.914062 2.867188 -4.332031 2.640625 -4.75 C 2.410156 -5.175781 2.097656 -5.472656 1.703125 -5.640625 C 1.304688 -5.816406 0.898438 -5.789062 0.484375 -5.5625 C 0.0546875 -5.332031 -0.1875 -5.003906 -0.25 -4.578125 C -0.3125 -4.160156 -0.226562 -3.738281 0 -3.3125 Z M 0 -3.3125 "/></g></g><g style="fill:#ffffff;fill-opacity:1;"><g transform="translate(54.824485, 106.412922)"><path style="stroke:none" d="M -2.421875 -5.296875 L -0.953125 -6.109375 C -0.242188 -6.492188 0.488281 -6.582031 1.25 -6.375 C 2.019531 -6.164062 2.609375 -5.695312 3.015625 -4.96875 C 3.410156 -4.238281 3.492188 -3.492188 3.265625 -2.734375 C 3.035156 -1.972656 2.5625 -1.398438 1.84375 -1.015625 L 0.375 -0.203125 Z M 0.96875 -1.890625 L 1.15625 -1.984375 C 1.570312 -2.210938 1.835938 -2.539062 1.953125 -2.96875 C 2.066406 -3.394531 2.007812 -3.832031 1.78125 -4.28125 C 1.539062 -4.707031 1.207031 -4.992188 0.78125 -5.140625 C 0.351562 -5.285156 -0.0703125 -5.238281 -0.5 -5 L -0.6875 -4.90625 Z M 0.96875 -1.890625 "/></g></g><g style="fill:#ffffff;fill-opacity:1;"><g transform="translate(59.127186, 104.05945)"><path style="stroke:none" d="M 0.5 -6.890625 L 1.0625 -5.875 L -0.703125 -4.921875 L -0.140625 -3.921875 L 1.546875 -4.84375 L 2.09375 -3.8125 L 0.40625 -2.890625 L 0.96875 -1.859375 L 2.734375 -2.8125 L 3.296875 -1.796875 L 0.375 -0.203125 L -2.421875 -5.296875 Z M 0.5 -6.890625 "/></g></g></g></svg>